G04 EAGLE Gerber RS-274X export*
G75*
%MOMM*%
%FSLAX34Y34*%
%LPD*%
%AMOC8*
5,1,8,0,0,1.08239X$1,22.5*%
G01*
%ADD10C,2.184400*%
%ADD11R,1.020000X1.870000*%
%ADD12C,1.879600*%
%ADD13C,2.000000*%
%ADD14R,2.000000X2.000000*%
%ADD15C,0.756400*%
%ADD16R,3.000000X3.000000*%


D10*
X22121Y80352D02*
X22121Y102196D01*
X59199Y61274D02*
X81043Y61274D01*
X81043Y121274D02*
X59199Y121274D01*
D11*
X213855Y499893D03*
X213855Y557469D03*
X239255Y499893D03*
X239255Y557469D03*
X264655Y499893D03*
X264655Y557469D03*
X290055Y499893D03*
X290055Y557469D03*
X315455Y499893D03*
X315455Y557469D03*
X340855Y499893D03*
X340855Y557469D03*
X366255Y499893D03*
X366255Y557469D03*
X391655Y499893D03*
X391655Y557469D03*
X417055Y499893D03*
X417055Y557469D03*
X442455Y499893D03*
X442455Y557469D03*
X467855Y499893D03*
X467855Y557469D03*
X493255Y499893D03*
X493255Y557469D03*
X518655Y499893D03*
X518655Y557469D03*
X544055Y499893D03*
X544055Y557469D03*
X569455Y499893D03*
X569455Y557469D03*
X594855Y499893D03*
X594855Y557469D03*
X620255Y499893D03*
X620255Y557469D03*
X645655Y499893D03*
X645655Y557469D03*
X671055Y499893D03*
X671055Y557469D03*
X696455Y499893D03*
X696455Y557469D03*
D12*
X213940Y516369D03*
X239340Y516369D03*
X264740Y516369D03*
X290140Y516369D03*
X315540Y516369D03*
X340940Y516369D03*
X366340Y516369D03*
X391740Y516369D03*
X417140Y516369D03*
X442540Y516369D03*
X467940Y516369D03*
X493340Y516369D03*
X518740Y516369D03*
X518740Y541769D03*
X493340Y541769D03*
X467940Y541769D03*
X442540Y541769D03*
X417140Y541769D03*
X391740Y541769D03*
X366340Y541769D03*
X340940Y541769D03*
X315540Y541769D03*
X290140Y541769D03*
X264740Y541769D03*
X239340Y541769D03*
X213940Y541769D03*
X544140Y516369D03*
X544140Y541769D03*
X569540Y516369D03*
X569540Y541769D03*
X594940Y516369D03*
X594940Y541769D03*
X620340Y516369D03*
X620340Y541769D03*
X645740Y516369D03*
X645740Y541769D03*
X671140Y516369D03*
X671140Y541769D03*
X696540Y516369D03*
X696540Y541769D03*
D13*
X472710Y346040D03*
D14*
X472710Y213960D03*
D13*
X287290Y346040D03*
X472710Y320640D03*
X287290Y320640D03*
D14*
X472710Y239360D03*
X287290Y213960D03*
X287290Y239360D03*
D15*
X3518Y605239D03*
X776655Y3843D03*
X776651Y605452D03*
X3729Y3769D03*
D16*
X110000Y420000D03*
X110000Y370000D03*
M02*
