G04 EAGLE Gerber RS-274X export*
G75*
%MOMM*%
%FSLAX34Y34*%
%LPD*%
%AMOC8*
5,1,8,0,0,1.08239X$1,22.5*%
G01*
%ADD10C,2.184400*%
%ADD11C,1.879600*%
%ADD12C,2.000000*%
%ADD13R,2.000000X2.000000*%
%ADD14C,0.756400*%
%ADD15C,0.152400*%
%ADD16C,0.762000*%
%ADD17R,3.000000X3.000000*%

G36*
X768796Y10959D02*
X768796Y10959D01*
X768816Y10956D01*
X768917Y10978D01*
X769019Y10995D01*
X769037Y11004D01*
X769057Y11009D01*
X769146Y11062D01*
X769237Y11110D01*
X769251Y11125D01*
X769268Y11135D01*
X769335Y11214D01*
X769406Y11289D01*
X769415Y11307D01*
X769428Y11322D01*
X769466Y11418D01*
X769510Y11512D01*
X769512Y11531D01*
X769519Y11550D01*
X769538Y11717D01*
X769538Y28047D01*
X769530Y28094D01*
X769532Y28142D01*
X769510Y28215D01*
X769498Y28290D01*
X769476Y28332D01*
X769462Y28378D01*
X769419Y28440D01*
X769383Y28507D01*
X769348Y28540D01*
X769321Y28579D01*
X769260Y28624D01*
X769205Y28676D01*
X769161Y28697D01*
X769123Y28725D01*
X769050Y28748D01*
X768982Y28780D01*
X768934Y28785D01*
X768888Y28800D01*
X768812Y28799D01*
X768737Y28807D01*
X768690Y28797D01*
X768642Y28796D01*
X768571Y28771D01*
X768497Y28755D01*
X768456Y28730D01*
X768410Y28714D01*
X768351Y28667D01*
X768286Y28629D01*
X768255Y28592D01*
X768217Y28563D01*
X768141Y28459D01*
X768126Y28442D01*
X768123Y28436D01*
X768117Y28427D01*
X765285Y23521D01*
X760600Y18836D01*
X754863Y15524D01*
X748464Y13809D01*
X741839Y13809D01*
X735439Y15524D01*
X729702Y18836D01*
X725017Y23521D01*
X721705Y29258D01*
X719990Y35658D01*
X719990Y42283D01*
X721705Y48682D01*
X725017Y54419D01*
X729702Y59104D01*
X735439Y62416D01*
X741839Y64131D01*
X748464Y64131D01*
X754863Y62416D01*
X760600Y59104D01*
X765285Y54419D01*
X768117Y49513D01*
X768148Y49475D01*
X768170Y49433D01*
X768225Y49381D01*
X768273Y49322D01*
X768314Y49297D01*
X768349Y49264D01*
X768417Y49232D01*
X768482Y49191D01*
X768528Y49180D01*
X768572Y49160D01*
X768647Y49152D01*
X768721Y49134D01*
X768769Y49138D01*
X768816Y49133D01*
X768890Y49149D01*
X768966Y49156D01*
X769010Y49175D01*
X769057Y49185D01*
X769122Y49224D01*
X769191Y49255D01*
X769227Y49287D01*
X769268Y49311D01*
X769317Y49369D01*
X769373Y49420D01*
X769396Y49462D01*
X769428Y49498D01*
X769456Y49569D01*
X769493Y49635D01*
X769502Y49682D01*
X769519Y49726D01*
X769534Y49855D01*
X769538Y49877D01*
X769537Y49883D01*
X769538Y49893D01*
X769538Y517996D01*
X769530Y518043D01*
X769532Y518091D01*
X769510Y518164D01*
X769498Y518239D01*
X769476Y518281D01*
X769462Y518327D01*
X769419Y518389D01*
X769383Y518456D01*
X769348Y518489D01*
X769321Y518528D01*
X769260Y518573D01*
X769205Y518625D01*
X769161Y518645D01*
X769123Y518674D01*
X769050Y518697D01*
X768982Y518729D01*
X768934Y518734D01*
X768888Y518749D01*
X768812Y518748D01*
X768737Y518756D01*
X768690Y518746D01*
X768642Y518745D01*
X768571Y518720D01*
X768497Y518704D01*
X768456Y518679D01*
X768410Y518663D01*
X768351Y518616D01*
X768286Y518578D01*
X768255Y518541D01*
X768217Y518512D01*
X768141Y518408D01*
X768126Y518391D01*
X768123Y518384D01*
X768117Y518376D01*
X765274Y513451D01*
X760589Y508766D01*
X754852Y505454D01*
X748452Y503739D01*
X741827Y503739D01*
X735428Y505454D01*
X729691Y508766D01*
X725006Y513451D01*
X721694Y519188D01*
X719979Y525587D01*
X719979Y532212D01*
X721694Y538611D01*
X725006Y544349D01*
X729691Y549033D01*
X735428Y552346D01*
X741827Y554060D01*
X748452Y554060D01*
X754852Y552346D01*
X760589Y549033D01*
X765274Y544349D01*
X768117Y539423D01*
X768148Y539386D01*
X768170Y539343D01*
X768225Y539291D01*
X768273Y539232D01*
X768314Y539207D01*
X768349Y539174D01*
X768417Y539142D01*
X768482Y539102D01*
X768528Y539090D01*
X768572Y539070D01*
X768647Y539062D01*
X768721Y539044D01*
X768769Y539048D01*
X768816Y539043D01*
X768890Y539059D01*
X768966Y539066D01*
X769010Y539085D01*
X769057Y539095D01*
X769122Y539134D01*
X769191Y539165D01*
X769227Y539197D01*
X769268Y539222D01*
X769317Y539279D01*
X769373Y539330D01*
X769396Y539372D01*
X769428Y539409D01*
X769456Y539479D01*
X769493Y539545D01*
X769502Y539592D01*
X769519Y539637D01*
X769534Y539765D01*
X769538Y539787D01*
X769537Y539793D01*
X769538Y539803D01*
X769538Y597365D01*
X769535Y597385D01*
X769537Y597405D01*
X769515Y597506D01*
X769498Y597608D01*
X769489Y597626D01*
X769485Y597645D01*
X769431Y597734D01*
X769383Y597825D01*
X769369Y597839D01*
X769358Y597856D01*
X769280Y597924D01*
X769205Y597995D01*
X769187Y598003D01*
X769172Y598016D01*
X769075Y598055D01*
X768982Y598098D01*
X768962Y598101D01*
X768943Y598108D01*
X768777Y598127D01*
X11603Y598127D01*
X11583Y598123D01*
X11563Y598126D01*
X11462Y598104D01*
X11360Y598087D01*
X11343Y598078D01*
X11323Y598073D01*
X11234Y598020D01*
X11143Y597972D01*
X11129Y597957D01*
X11112Y597947D01*
X11045Y597868D01*
X10973Y597793D01*
X10965Y597775D01*
X10952Y597760D01*
X10913Y597664D01*
X10870Y597570D01*
X10868Y597551D01*
X10860Y597532D01*
X10842Y597365D01*
X10842Y160000D01*
X10845Y159980D01*
X10843Y159961D01*
X10865Y159859D01*
X10881Y159757D01*
X10891Y159740D01*
X10895Y159720D01*
X10948Y159631D01*
X10996Y159540D01*
X11011Y159526D01*
X11021Y159509D01*
X11100Y159442D01*
X11175Y159371D01*
X11193Y159362D01*
X11208Y159349D01*
X11304Y159310D01*
X11398Y159267D01*
X11418Y159265D01*
X11436Y159257D01*
X11603Y159239D01*
X370000Y159239D01*
X370090Y159254D01*
X370181Y159261D01*
X370211Y159273D01*
X370243Y159279D01*
X370323Y159321D01*
X370407Y159357D01*
X370439Y159383D01*
X370460Y159394D01*
X370482Y159417D01*
X370538Y159462D01*
X413576Y202500D01*
X413618Y202558D01*
X413668Y202610D01*
X413690Y202657D01*
X413720Y202699D01*
X413741Y202768D01*
X413771Y202833D01*
X413777Y202885D01*
X413792Y202935D01*
X413790Y203006D01*
X413798Y203077D01*
X413787Y203128D01*
X413786Y203180D01*
X413761Y203248D01*
X413746Y203318D01*
X413719Y203362D01*
X413701Y203411D01*
X413657Y203467D01*
X413620Y203529D01*
X413580Y203563D01*
X413548Y203603D01*
X413487Y203642D01*
X413433Y203689D01*
X413385Y203708D01*
X413341Y203736D01*
X413271Y203754D01*
X413205Y203781D01*
X413133Y203789D01*
X413102Y203797D01*
X413079Y203795D01*
X413038Y203799D01*
X358484Y203799D01*
X358394Y203785D01*
X358303Y203777D01*
X358273Y203765D01*
X358241Y203760D01*
X358161Y203717D01*
X358077Y203681D01*
X358045Y203655D01*
X358024Y203644D01*
X358002Y203621D01*
X357946Y203576D01*
X321786Y167416D01*
X318051Y165869D01*
X242192Y165869D01*
X238458Y167416D01*
X214767Y191107D01*
X214714Y191145D01*
X214667Y191191D01*
X214594Y191231D01*
X214567Y191251D01*
X214549Y191256D01*
X214520Y191272D01*
X214244Y191386D01*
X211386Y194244D01*
X211272Y194520D01*
X211237Y194576D01*
X211212Y194636D01*
X211160Y194701D01*
X211142Y194729D01*
X211127Y194741D01*
X211107Y194767D01*
X150381Y255492D01*
X150381Y255493D01*
X147416Y258458D01*
X145869Y262192D01*
X145869Y349446D01*
X145855Y349536D01*
X145847Y349627D01*
X145835Y349657D01*
X145830Y349689D01*
X145787Y349769D01*
X145751Y349853D01*
X145725Y349885D01*
X145714Y349906D01*
X145691Y349928D01*
X145646Y349984D01*
X136014Y359616D01*
X135940Y359669D01*
X135871Y359729D01*
X135841Y359741D01*
X135815Y359760D01*
X135728Y359787D01*
X135643Y359821D01*
X135602Y359825D01*
X135579Y359832D01*
X135547Y359831D01*
X135476Y359839D01*
X132112Y359839D01*
X132092Y359836D01*
X132073Y359838D01*
X131971Y359816D01*
X131869Y359800D01*
X131852Y359790D01*
X131832Y359786D01*
X131743Y359733D01*
X131652Y359684D01*
X131638Y359670D01*
X131621Y359660D01*
X131554Y359581D01*
X131482Y359506D01*
X131474Y359488D01*
X131461Y359473D01*
X131422Y359377D01*
X131379Y359283D01*
X131377Y359263D01*
X131369Y359245D01*
X131351Y359078D01*
X131351Y353737D01*
X130384Y351403D01*
X128597Y349616D01*
X126263Y348649D01*
X93737Y348649D01*
X91403Y349616D01*
X89616Y351403D01*
X88649Y353737D01*
X88649Y386263D01*
X89616Y388597D01*
X91403Y390384D01*
X93737Y391351D01*
X126263Y391351D01*
X128597Y390384D01*
X130384Y388597D01*
X131351Y386263D01*
X131351Y380922D01*
X131354Y380903D01*
X131352Y380883D01*
X131374Y380781D01*
X131390Y380679D01*
X131400Y380662D01*
X131404Y380642D01*
X131457Y380553D01*
X131506Y380462D01*
X131520Y380448D01*
X131530Y380431D01*
X131609Y380364D01*
X131684Y380292D01*
X131702Y380284D01*
X131717Y380271D01*
X131813Y380232D01*
X131907Y380189D01*
X131927Y380187D01*
X131945Y380179D01*
X132112Y380161D01*
X142021Y380161D01*
X145756Y378614D01*
X148721Y375649D01*
X158540Y365830D01*
X158598Y365788D01*
X158650Y365738D01*
X158697Y365716D01*
X158739Y365686D01*
X158808Y365665D01*
X158873Y365635D01*
X158925Y365629D01*
X158975Y365614D01*
X159046Y365616D01*
X159117Y365608D01*
X159168Y365619D01*
X159220Y365620D01*
X159288Y365645D01*
X159358Y365660D01*
X159402Y365687D01*
X159451Y365705D01*
X159507Y365749D01*
X159569Y365786D01*
X159603Y365826D01*
X159643Y365858D01*
X159682Y365919D01*
X159729Y365973D01*
X159748Y366021D01*
X159776Y366065D01*
X159794Y366135D01*
X159821Y366201D01*
X159829Y366273D01*
X159837Y366304D01*
X159835Y366327D01*
X159839Y366368D01*
X159839Y395476D01*
X159825Y395566D01*
X159817Y395657D01*
X159805Y395687D01*
X159800Y395719D01*
X159757Y395799D01*
X159721Y395883D01*
X159695Y395915D01*
X159684Y395936D01*
X159661Y395958D01*
X159616Y396014D01*
X146014Y409616D01*
X145940Y409669D01*
X145871Y409729D01*
X145841Y409741D01*
X145814Y409760D01*
X145728Y409787D01*
X145643Y409821D01*
X145602Y409825D01*
X145579Y409832D01*
X145547Y409831D01*
X145476Y409839D01*
X132112Y409839D01*
X132092Y409836D01*
X132073Y409838D01*
X131971Y409816D01*
X131869Y409800D01*
X131852Y409790D01*
X131832Y409786D01*
X131743Y409733D01*
X131652Y409684D01*
X131638Y409670D01*
X131621Y409660D01*
X131554Y409581D01*
X131482Y409506D01*
X131474Y409488D01*
X131461Y409473D01*
X131422Y409377D01*
X131379Y409283D01*
X131377Y409263D01*
X131369Y409245D01*
X131351Y409078D01*
X131351Y403737D01*
X130384Y401403D01*
X128597Y399616D01*
X126263Y398649D01*
X93737Y398649D01*
X91403Y399616D01*
X89616Y401403D01*
X88649Y403737D01*
X88649Y436263D01*
X89616Y438597D01*
X91403Y440384D01*
X93737Y441351D01*
X126263Y441351D01*
X128597Y440384D01*
X130384Y438597D01*
X131351Y436263D01*
X131351Y430922D01*
X131354Y430902D01*
X131352Y430883D01*
X131374Y430781D01*
X131390Y430679D01*
X131400Y430662D01*
X131404Y430642D01*
X131457Y430553D01*
X131506Y430462D01*
X131520Y430448D01*
X131530Y430431D01*
X131609Y430364D01*
X131684Y430292D01*
X131702Y430284D01*
X131717Y430271D01*
X131813Y430232D01*
X131907Y430189D01*
X131927Y430187D01*
X131945Y430179D01*
X132112Y430161D01*
X143632Y430161D01*
X143703Y430172D01*
X143774Y430174D01*
X143823Y430192D01*
X143875Y430200D01*
X143938Y430234D01*
X144005Y430259D01*
X144046Y430291D01*
X144092Y430316D01*
X144141Y430368D01*
X144197Y430412D01*
X144226Y430456D01*
X144262Y430494D01*
X144292Y430559D01*
X144330Y430619D01*
X144343Y430670D01*
X144365Y430717D01*
X144373Y430788D01*
X144391Y430858D01*
X144386Y430910D01*
X144392Y430961D01*
X144377Y431032D01*
X144371Y431103D01*
X144351Y431151D01*
X144340Y431202D01*
X144303Y431263D01*
X144275Y431329D01*
X144230Y431385D01*
X144214Y431413D01*
X144196Y431428D01*
X144170Y431460D01*
X114351Y461279D01*
X111386Y464244D01*
X109839Y467979D01*
X109839Y552021D01*
X111386Y555756D01*
X114351Y558721D01*
X141279Y585649D01*
X144244Y588614D01*
X147979Y590161D01*
X202021Y590161D01*
X205756Y588614D01*
X222554Y571816D01*
X224100Y568081D01*
X224100Y554195D01*
X224115Y554105D01*
X224122Y554014D01*
X224135Y553985D01*
X224140Y553953D01*
X224183Y553872D01*
X224219Y553788D01*
X224244Y553756D01*
X224255Y553735D01*
X224279Y553713D01*
X224323Y553657D01*
X226101Y551879D01*
X226118Y551868D01*
X226130Y551852D01*
X226217Y551796D01*
X226301Y551736D01*
X226320Y551730D01*
X226337Y551719D01*
X226437Y551694D01*
X226536Y551663D01*
X226556Y551664D01*
X226575Y551659D01*
X226678Y551667D01*
X226782Y551670D01*
X226801Y551676D01*
X226821Y551678D01*
X226916Y551719D01*
X227013Y551754D01*
X227029Y551767D01*
X227047Y551774D01*
X227178Y551879D01*
X230419Y555120D01*
X236207Y557518D01*
X242472Y557518D01*
X248261Y555120D01*
X251501Y551879D01*
X251518Y551868D01*
X251530Y551852D01*
X251617Y551796D01*
X251701Y551736D01*
X251720Y551730D01*
X251737Y551719D01*
X251837Y551694D01*
X251936Y551663D01*
X251956Y551664D01*
X251975Y551659D01*
X252078Y551667D01*
X252182Y551670D01*
X252201Y551676D01*
X252221Y551678D01*
X252316Y551718D01*
X252413Y551754D01*
X252429Y551767D01*
X252447Y551774D01*
X252578Y551879D01*
X255819Y555120D01*
X261607Y557518D01*
X267872Y557518D01*
X273661Y555120D01*
X276901Y551879D01*
X276918Y551868D01*
X276930Y551852D01*
X277017Y551796D01*
X277101Y551736D01*
X277120Y551730D01*
X277137Y551719D01*
X277237Y551694D01*
X277336Y551663D01*
X277356Y551664D01*
X277375Y551659D01*
X277478Y551667D01*
X277582Y551670D01*
X277601Y551676D01*
X277621Y551678D01*
X277716Y551718D01*
X277813Y551754D01*
X277829Y551767D01*
X277847Y551774D01*
X277978Y551879D01*
X281219Y555120D01*
X287007Y557518D01*
X293272Y557518D01*
X299061Y555120D01*
X302301Y551879D01*
X302318Y551868D01*
X302330Y551852D01*
X302417Y551796D01*
X302501Y551736D01*
X302520Y551730D01*
X302537Y551719D01*
X302637Y551694D01*
X302736Y551663D01*
X302756Y551664D01*
X302775Y551659D01*
X302878Y551667D01*
X302982Y551670D01*
X303001Y551676D01*
X303021Y551678D01*
X303116Y551718D01*
X303213Y551754D01*
X303229Y551767D01*
X303247Y551774D01*
X303378Y551879D01*
X306619Y555120D01*
X312407Y557518D01*
X318672Y557518D01*
X324461Y555120D01*
X327701Y551879D01*
X327718Y551868D01*
X327730Y551852D01*
X327817Y551796D01*
X327901Y551736D01*
X327920Y551730D01*
X327937Y551719D01*
X328037Y551694D01*
X328136Y551663D01*
X328156Y551664D01*
X328175Y551659D01*
X328278Y551667D01*
X328382Y551670D01*
X328401Y551676D01*
X328421Y551678D01*
X328516Y551718D01*
X328613Y551754D01*
X328629Y551767D01*
X328647Y551774D01*
X328778Y551879D01*
X332019Y555120D01*
X337807Y557518D01*
X344072Y557518D01*
X349861Y555120D01*
X353101Y551879D01*
X353118Y551868D01*
X353130Y551852D01*
X353217Y551796D01*
X353301Y551736D01*
X353320Y551730D01*
X353337Y551719D01*
X353437Y551694D01*
X353536Y551663D01*
X353556Y551664D01*
X353575Y551659D01*
X353678Y551667D01*
X353782Y551670D01*
X353801Y551676D01*
X353821Y551678D01*
X353916Y551718D01*
X354013Y551754D01*
X354029Y551767D01*
X354047Y551774D01*
X354178Y551879D01*
X357419Y555120D01*
X363207Y557518D01*
X369472Y557518D01*
X375261Y555120D01*
X378501Y551879D01*
X378518Y551868D01*
X378530Y551852D01*
X378617Y551796D01*
X378701Y551736D01*
X378720Y551730D01*
X378737Y551719D01*
X378837Y551694D01*
X378936Y551663D01*
X378956Y551664D01*
X378975Y551659D01*
X379078Y551667D01*
X379182Y551670D01*
X379201Y551676D01*
X379221Y551678D01*
X379316Y551718D01*
X379413Y551754D01*
X379429Y551767D01*
X379447Y551774D01*
X379578Y551879D01*
X382819Y555120D01*
X388607Y557518D01*
X394872Y557518D01*
X400661Y555120D01*
X403901Y551879D01*
X403918Y551868D01*
X403930Y551852D01*
X404017Y551796D01*
X404101Y551736D01*
X404120Y551730D01*
X404137Y551719D01*
X404237Y551694D01*
X404336Y551663D01*
X404356Y551664D01*
X404375Y551659D01*
X404478Y551667D01*
X404582Y551670D01*
X404601Y551676D01*
X404621Y551678D01*
X404716Y551718D01*
X404813Y551754D01*
X404829Y551767D01*
X404847Y551774D01*
X404978Y551879D01*
X408219Y555120D01*
X414007Y557518D01*
X420272Y557518D01*
X426061Y555120D01*
X429301Y551879D01*
X429318Y551868D01*
X429330Y551852D01*
X429417Y551796D01*
X429501Y551736D01*
X429520Y551730D01*
X429537Y551719D01*
X429637Y551694D01*
X429736Y551663D01*
X429756Y551664D01*
X429775Y551659D01*
X429878Y551667D01*
X429982Y551670D01*
X430001Y551676D01*
X430021Y551678D01*
X430116Y551718D01*
X430213Y551754D01*
X430229Y551767D01*
X430247Y551774D01*
X430378Y551879D01*
X433619Y555120D01*
X439407Y557518D01*
X445672Y557518D01*
X451461Y555120D01*
X454701Y551879D01*
X454718Y551868D01*
X454730Y551852D01*
X454817Y551796D01*
X454901Y551736D01*
X454920Y551730D01*
X454937Y551719D01*
X455037Y551694D01*
X455136Y551663D01*
X455156Y551664D01*
X455175Y551659D01*
X455278Y551667D01*
X455382Y551670D01*
X455401Y551676D01*
X455421Y551678D01*
X455516Y551718D01*
X455613Y551754D01*
X455629Y551767D01*
X455647Y551774D01*
X455778Y551879D01*
X459019Y555120D01*
X464807Y557518D01*
X471072Y557518D01*
X476861Y555120D01*
X480101Y551879D01*
X480118Y551868D01*
X480130Y551852D01*
X480217Y551796D01*
X480301Y551736D01*
X480320Y551730D01*
X480337Y551719D01*
X480437Y551694D01*
X480536Y551663D01*
X480556Y551664D01*
X480575Y551659D01*
X480678Y551667D01*
X480782Y551670D01*
X480801Y551676D01*
X480821Y551678D01*
X480916Y551718D01*
X481013Y551754D01*
X481029Y551767D01*
X481047Y551774D01*
X481178Y551879D01*
X484419Y555120D01*
X490207Y557518D01*
X496472Y557518D01*
X502261Y555120D01*
X505501Y551879D01*
X505518Y551868D01*
X505530Y551852D01*
X505617Y551796D01*
X505701Y551736D01*
X505720Y551730D01*
X505737Y551719D01*
X505837Y551694D01*
X505936Y551663D01*
X505956Y551664D01*
X505975Y551659D01*
X506078Y551667D01*
X506182Y551670D01*
X506201Y551676D01*
X506221Y551678D01*
X506316Y551718D01*
X506413Y551754D01*
X506429Y551767D01*
X506447Y551774D01*
X506578Y551879D01*
X509819Y555120D01*
X515607Y557518D01*
X521872Y557518D01*
X527661Y555120D01*
X530901Y551879D01*
X530918Y551868D01*
X530930Y551852D01*
X531017Y551796D01*
X531101Y551736D01*
X531120Y551730D01*
X531137Y551719D01*
X531237Y551694D01*
X531336Y551663D01*
X531356Y551664D01*
X531375Y551659D01*
X531478Y551667D01*
X531582Y551670D01*
X531601Y551676D01*
X531621Y551678D01*
X531716Y551718D01*
X531813Y551754D01*
X531829Y551767D01*
X531847Y551774D01*
X531978Y551879D01*
X535219Y555120D01*
X541007Y557518D01*
X547272Y557518D01*
X553061Y555120D01*
X556301Y551879D01*
X556318Y551868D01*
X556330Y551852D01*
X556417Y551796D01*
X556501Y551736D01*
X556520Y551730D01*
X556537Y551719D01*
X556637Y551694D01*
X556736Y551663D01*
X556756Y551664D01*
X556775Y551659D01*
X556878Y551667D01*
X556982Y551670D01*
X557001Y551676D01*
X557021Y551678D01*
X557116Y551718D01*
X557213Y551754D01*
X557229Y551767D01*
X557247Y551774D01*
X557378Y551879D01*
X560619Y555120D01*
X566407Y557518D01*
X572672Y557518D01*
X578461Y555120D01*
X581701Y551879D01*
X581718Y551868D01*
X581730Y551852D01*
X581817Y551796D01*
X581901Y551736D01*
X581920Y551730D01*
X581937Y551719D01*
X582037Y551694D01*
X582136Y551663D01*
X582156Y551664D01*
X582175Y551659D01*
X582278Y551667D01*
X582382Y551670D01*
X582401Y551676D01*
X582421Y551678D01*
X582516Y551718D01*
X582613Y551754D01*
X582629Y551767D01*
X582647Y551774D01*
X582778Y551879D01*
X586019Y555120D01*
X591807Y557518D01*
X598072Y557518D01*
X603861Y555120D01*
X607101Y551879D01*
X607118Y551868D01*
X607130Y551852D01*
X607217Y551796D01*
X607301Y551736D01*
X607320Y551730D01*
X607337Y551719D01*
X607437Y551694D01*
X607536Y551663D01*
X607556Y551664D01*
X607575Y551659D01*
X607678Y551667D01*
X607782Y551670D01*
X607801Y551676D01*
X607821Y551678D01*
X607916Y551718D01*
X608013Y551754D01*
X608029Y551767D01*
X608047Y551774D01*
X608178Y551879D01*
X611419Y555120D01*
X617207Y557518D01*
X623472Y557518D01*
X629261Y555120D01*
X632501Y551879D01*
X632518Y551868D01*
X632530Y551852D01*
X632617Y551796D01*
X632701Y551736D01*
X632720Y551730D01*
X632737Y551719D01*
X632837Y551694D01*
X632936Y551663D01*
X632956Y551664D01*
X632975Y551659D01*
X633078Y551667D01*
X633182Y551670D01*
X633201Y551676D01*
X633221Y551678D01*
X633316Y551718D01*
X633413Y551754D01*
X633429Y551767D01*
X633447Y551774D01*
X633578Y551879D01*
X636819Y555120D01*
X642607Y557518D01*
X648872Y557518D01*
X654661Y555120D01*
X657901Y551879D01*
X657918Y551868D01*
X657930Y551852D01*
X658017Y551796D01*
X658101Y551736D01*
X658120Y551730D01*
X658137Y551719D01*
X658237Y551694D01*
X658336Y551663D01*
X658356Y551664D01*
X658375Y551659D01*
X658478Y551667D01*
X658582Y551670D01*
X658601Y551676D01*
X658621Y551678D01*
X658716Y551718D01*
X658813Y551754D01*
X658829Y551767D01*
X658847Y551774D01*
X658978Y551879D01*
X662219Y555120D01*
X668007Y557518D01*
X674272Y557518D01*
X680061Y555120D01*
X683301Y551879D01*
X683318Y551868D01*
X683330Y551852D01*
X683417Y551796D01*
X683501Y551736D01*
X683520Y551730D01*
X683537Y551719D01*
X683637Y551694D01*
X683736Y551663D01*
X683756Y551664D01*
X683775Y551659D01*
X683878Y551667D01*
X683982Y551670D01*
X684001Y551676D01*
X684021Y551678D01*
X684116Y551718D01*
X684213Y551754D01*
X684229Y551767D01*
X684247Y551774D01*
X684378Y551879D01*
X687619Y555120D01*
X693407Y557518D01*
X699672Y557518D01*
X705461Y555120D01*
X709891Y550690D01*
X712288Y544901D01*
X712288Y538636D01*
X709891Y532848D01*
X706650Y529607D01*
X706638Y529591D01*
X706623Y529578D01*
X706567Y529491D01*
X706507Y529407D01*
X706501Y529388D01*
X706490Y529372D01*
X706465Y529271D01*
X706434Y529172D01*
X706435Y529152D01*
X706430Y529133D01*
X706438Y529030D01*
X706441Y528926D01*
X706447Y528908D01*
X706449Y528888D01*
X706489Y528793D01*
X706525Y528695D01*
X706537Y528680D01*
X706545Y528661D01*
X706650Y528530D01*
X709891Y525290D01*
X712288Y519501D01*
X712288Y513236D01*
X709891Y507448D01*
X705461Y503018D01*
X699672Y500620D01*
X693407Y500620D01*
X687619Y503018D01*
X684378Y506258D01*
X684362Y506270D01*
X684349Y506286D01*
X684262Y506342D01*
X684178Y506402D01*
X684159Y506408D01*
X684142Y506419D01*
X684042Y506444D01*
X683943Y506474D01*
X683923Y506474D01*
X683904Y506479D01*
X683801Y506471D01*
X683697Y506468D01*
X683678Y506461D01*
X683659Y506460D01*
X683564Y506419D01*
X683466Y506384D01*
X683451Y506371D01*
X683432Y506363D01*
X683301Y506258D01*
X680061Y503018D01*
X674272Y500620D01*
X668007Y500620D01*
X662219Y503018D01*
X658978Y506258D01*
X658962Y506270D01*
X658949Y506286D01*
X658862Y506342D01*
X658778Y506402D01*
X658759Y506408D01*
X658742Y506419D01*
X658642Y506444D01*
X658543Y506474D01*
X658523Y506474D01*
X658504Y506479D01*
X658401Y506471D01*
X658297Y506468D01*
X658278Y506461D01*
X658259Y506460D01*
X658164Y506419D01*
X658066Y506384D01*
X658051Y506371D01*
X658032Y506363D01*
X657901Y506258D01*
X654661Y503018D01*
X648872Y500620D01*
X642607Y500620D01*
X636819Y503018D01*
X633578Y506258D01*
X633562Y506270D01*
X633549Y506286D01*
X633462Y506342D01*
X633378Y506402D01*
X633359Y506408D01*
X633342Y506419D01*
X633242Y506444D01*
X633143Y506474D01*
X633123Y506474D01*
X633104Y506479D01*
X633001Y506471D01*
X632897Y506468D01*
X632878Y506461D01*
X632859Y506460D01*
X632764Y506419D01*
X632666Y506384D01*
X632651Y506371D01*
X632632Y506363D01*
X632501Y506258D01*
X629261Y503018D01*
X623472Y500620D01*
X617207Y500620D01*
X611419Y503018D01*
X608178Y506258D01*
X608162Y506270D01*
X608149Y506286D01*
X608062Y506342D01*
X607978Y506402D01*
X607959Y506408D01*
X607942Y506419D01*
X607842Y506444D01*
X607743Y506474D01*
X607723Y506474D01*
X607704Y506479D01*
X607601Y506471D01*
X607497Y506468D01*
X607478Y506461D01*
X607459Y506460D01*
X607364Y506419D01*
X607266Y506384D01*
X607251Y506371D01*
X607232Y506363D01*
X607101Y506258D01*
X603861Y503018D01*
X598072Y500620D01*
X591807Y500620D01*
X586019Y503018D01*
X582778Y506258D01*
X582762Y506270D01*
X582749Y506286D01*
X582662Y506342D01*
X582578Y506402D01*
X582559Y506408D01*
X582542Y506419D01*
X582442Y506444D01*
X582343Y506474D01*
X582323Y506474D01*
X582304Y506479D01*
X582201Y506471D01*
X582097Y506468D01*
X582078Y506461D01*
X582059Y506460D01*
X581964Y506419D01*
X581866Y506384D01*
X581851Y506371D01*
X581832Y506363D01*
X581701Y506258D01*
X578461Y503018D01*
X572672Y500620D01*
X566407Y500620D01*
X560619Y503018D01*
X557378Y506258D01*
X557362Y506270D01*
X557349Y506286D01*
X557262Y506342D01*
X557178Y506402D01*
X557159Y506408D01*
X557142Y506419D01*
X557042Y506444D01*
X556943Y506474D01*
X556923Y506474D01*
X556904Y506479D01*
X556801Y506471D01*
X556697Y506468D01*
X556678Y506461D01*
X556659Y506460D01*
X556564Y506419D01*
X556466Y506384D01*
X556451Y506371D01*
X556432Y506363D01*
X556301Y506258D01*
X553061Y503018D01*
X547272Y500620D01*
X541007Y500620D01*
X535219Y503018D01*
X531978Y506258D01*
X531962Y506270D01*
X531949Y506286D01*
X531862Y506342D01*
X531778Y506402D01*
X531759Y506408D01*
X531742Y506419D01*
X531642Y506444D01*
X531543Y506474D01*
X531523Y506474D01*
X531504Y506479D01*
X531401Y506471D01*
X531297Y506468D01*
X531279Y506461D01*
X531259Y506460D01*
X531164Y506419D01*
X531066Y506384D01*
X531051Y506371D01*
X531032Y506363D01*
X530901Y506258D01*
X527661Y503018D01*
X521872Y500620D01*
X515607Y500620D01*
X509819Y503018D01*
X506578Y506258D01*
X506562Y506270D01*
X506549Y506286D01*
X506462Y506342D01*
X506378Y506402D01*
X506359Y506408D01*
X506342Y506419D01*
X506242Y506444D01*
X506143Y506474D01*
X506123Y506474D01*
X506104Y506479D01*
X506001Y506471D01*
X505897Y506468D01*
X505878Y506461D01*
X505859Y506460D01*
X505764Y506419D01*
X505666Y506384D01*
X505651Y506371D01*
X505632Y506363D01*
X505501Y506258D01*
X502261Y503018D01*
X496472Y500620D01*
X490207Y500620D01*
X484419Y503018D01*
X481178Y506258D01*
X481162Y506270D01*
X481149Y506286D01*
X481062Y506342D01*
X480978Y506402D01*
X480959Y506408D01*
X480942Y506419D01*
X480842Y506444D01*
X480743Y506474D01*
X480723Y506474D01*
X480704Y506479D01*
X480601Y506471D01*
X480497Y506468D01*
X480478Y506461D01*
X480459Y506460D01*
X480364Y506419D01*
X480266Y506384D01*
X480251Y506371D01*
X480232Y506363D01*
X480101Y506258D01*
X476861Y503018D01*
X471072Y500620D01*
X464807Y500620D01*
X459019Y503018D01*
X455778Y506258D01*
X455762Y506270D01*
X455749Y506286D01*
X455662Y506342D01*
X455578Y506402D01*
X455559Y506408D01*
X455542Y506419D01*
X455442Y506444D01*
X455343Y506474D01*
X455323Y506474D01*
X455304Y506479D01*
X455201Y506471D01*
X455097Y506468D01*
X455078Y506461D01*
X455059Y506460D01*
X454964Y506419D01*
X454866Y506384D01*
X454851Y506371D01*
X454832Y506363D01*
X454701Y506258D01*
X451461Y503018D01*
X445672Y500620D01*
X439407Y500620D01*
X433619Y503018D01*
X430378Y506258D01*
X430362Y506270D01*
X430349Y506286D01*
X430262Y506342D01*
X430178Y506402D01*
X430159Y506408D01*
X430142Y506419D01*
X430042Y506444D01*
X429943Y506474D01*
X429923Y506474D01*
X429904Y506479D01*
X429801Y506471D01*
X429697Y506468D01*
X429678Y506461D01*
X429659Y506460D01*
X429564Y506419D01*
X429466Y506384D01*
X429451Y506371D01*
X429432Y506363D01*
X429301Y506258D01*
X426061Y503018D01*
X420272Y500620D01*
X414007Y500620D01*
X408219Y503018D01*
X404978Y506258D01*
X404962Y506270D01*
X404949Y506286D01*
X404862Y506342D01*
X404778Y506402D01*
X404759Y506408D01*
X404742Y506419D01*
X404642Y506444D01*
X404543Y506474D01*
X404523Y506474D01*
X404504Y506479D01*
X404401Y506471D01*
X404297Y506468D01*
X404278Y506461D01*
X404259Y506460D01*
X404164Y506419D01*
X404066Y506384D01*
X404051Y506371D01*
X404032Y506363D01*
X403901Y506258D01*
X400661Y503018D01*
X394872Y500620D01*
X388607Y500620D01*
X382819Y503018D01*
X379578Y506258D01*
X379562Y506270D01*
X379549Y506286D01*
X379462Y506342D01*
X379378Y506402D01*
X379359Y506408D01*
X379342Y506419D01*
X379242Y506444D01*
X379143Y506474D01*
X379123Y506474D01*
X379104Y506479D01*
X379001Y506471D01*
X378897Y506468D01*
X378878Y506461D01*
X378859Y506460D01*
X378764Y506419D01*
X378666Y506384D01*
X378651Y506371D01*
X378632Y506363D01*
X378501Y506258D01*
X375261Y503018D01*
X369472Y500620D01*
X363207Y500620D01*
X357419Y503018D01*
X354178Y506258D01*
X354162Y506270D01*
X354149Y506286D01*
X354062Y506342D01*
X353978Y506402D01*
X353959Y506408D01*
X353942Y506419D01*
X353842Y506444D01*
X353743Y506474D01*
X353723Y506474D01*
X353704Y506479D01*
X353601Y506471D01*
X353497Y506468D01*
X353478Y506461D01*
X353459Y506460D01*
X353364Y506419D01*
X353266Y506384D01*
X353251Y506371D01*
X353232Y506363D01*
X353101Y506258D01*
X349861Y503018D01*
X344072Y500620D01*
X337807Y500620D01*
X332019Y503018D01*
X327589Y507448D01*
X326739Y509500D01*
X326683Y509589D01*
X326632Y509681D01*
X326619Y509693D01*
X326609Y509709D01*
X326528Y509776D01*
X326450Y509847D01*
X326434Y509854D01*
X326420Y509866D01*
X326322Y509903D01*
X326225Y509946D01*
X326207Y509947D01*
X326190Y509954D01*
X326085Y509958D01*
X325980Y509968D01*
X325962Y509963D01*
X325944Y509964D01*
X325843Y509935D01*
X325741Y509910D01*
X325725Y509901D01*
X325708Y509896D01*
X325622Y509836D01*
X325532Y509780D01*
X325517Y509763D01*
X325506Y509755D01*
X325487Y509730D01*
X325419Y509656D01*
X324646Y508591D01*
X323317Y507263D01*
X321797Y506158D01*
X320123Y505305D01*
X318335Y504724D01*
X317063Y504522D01*
X317063Y515607D01*
X317060Y515626D01*
X317062Y515646D01*
X317040Y515747D01*
X317023Y515849D01*
X317014Y515867D01*
X317010Y515886D01*
X316956Y515975D01*
X316908Y516067D01*
X316894Y516080D01*
X316883Y516098D01*
X316805Y516165D01*
X316730Y516236D01*
X316712Y516245D01*
X316697Y516257D01*
X316600Y516296D01*
X316507Y516340D01*
X316487Y516342D01*
X316468Y516349D01*
X316302Y516368D01*
X314778Y516368D01*
X314758Y516365D01*
X314738Y516367D01*
X314637Y516345D01*
X314535Y516328D01*
X314517Y516319D01*
X314498Y516315D01*
X314409Y516261D01*
X314318Y516213D01*
X314304Y516199D01*
X314287Y516188D01*
X314219Y516110D01*
X314148Y516035D01*
X314140Y516017D01*
X314127Y516002D01*
X314088Y515905D01*
X314045Y515812D01*
X314042Y515792D01*
X314035Y515773D01*
X314016Y515607D01*
X314016Y504522D01*
X312744Y504724D01*
X310957Y505305D01*
X309283Y506158D01*
X307762Y507263D01*
X306433Y508591D01*
X305660Y509656D01*
X305585Y509730D01*
X305514Y509807D01*
X305498Y509816D01*
X305485Y509829D01*
X305391Y509875D01*
X305298Y509926D01*
X305281Y509929D01*
X305264Y509937D01*
X305160Y509951D01*
X305056Y509969D01*
X305038Y509967D01*
X305020Y509969D01*
X304917Y509949D01*
X304813Y509934D01*
X304797Y509925D01*
X304779Y509922D01*
X304687Y509870D01*
X304594Y509822D01*
X304581Y509809D01*
X304565Y509800D01*
X304495Y509722D01*
X304422Y509647D01*
X304411Y509627D01*
X304402Y509617D01*
X304389Y509588D01*
X304341Y509500D01*
X303491Y507448D01*
X299061Y503018D01*
X293272Y500620D01*
X287007Y500620D01*
X281219Y503018D01*
X277978Y506258D01*
X277962Y506270D01*
X277949Y506286D01*
X277862Y506342D01*
X277778Y506402D01*
X277759Y506408D01*
X277742Y506419D01*
X277642Y506444D01*
X277543Y506474D01*
X277523Y506474D01*
X277504Y506479D01*
X277401Y506471D01*
X277297Y506468D01*
X277278Y506461D01*
X277259Y506460D01*
X277164Y506419D01*
X277066Y506384D01*
X277051Y506371D01*
X277032Y506363D01*
X276901Y506258D01*
X273661Y503018D01*
X267872Y500620D01*
X261607Y500620D01*
X255819Y503018D01*
X252578Y506258D01*
X252562Y506270D01*
X252549Y506286D01*
X252462Y506342D01*
X252378Y506402D01*
X252359Y506408D01*
X252342Y506419D01*
X252242Y506444D01*
X252143Y506474D01*
X252123Y506474D01*
X252104Y506479D01*
X252001Y506471D01*
X251897Y506468D01*
X251878Y506461D01*
X251859Y506460D01*
X251764Y506419D01*
X251666Y506384D01*
X251651Y506371D01*
X251632Y506363D01*
X251501Y506258D01*
X248261Y503018D01*
X242472Y500620D01*
X236207Y500620D01*
X230419Y503018D01*
X227178Y506258D01*
X227162Y506270D01*
X227149Y506286D01*
X227062Y506342D01*
X226978Y506402D01*
X226959Y506408D01*
X226942Y506419D01*
X226842Y506444D01*
X226743Y506474D01*
X226723Y506474D01*
X226704Y506479D01*
X226601Y506471D01*
X226497Y506468D01*
X226478Y506461D01*
X226459Y506460D01*
X226364Y506419D01*
X226266Y506384D01*
X226251Y506371D01*
X226232Y506363D01*
X226101Y506258D01*
X222861Y503018D01*
X217072Y500620D01*
X210807Y500620D01*
X205019Y503018D01*
X200589Y507448D01*
X198191Y513236D01*
X198191Y519501D01*
X200589Y525290D01*
X203829Y528531D01*
X203841Y528547D01*
X203857Y528559D01*
X203913Y528647D01*
X203973Y528730D01*
X203979Y528749D01*
X203990Y528766D01*
X204015Y528867D01*
X204045Y528965D01*
X204045Y528985D01*
X204050Y529005D01*
X204042Y529108D01*
X204039Y529211D01*
X204032Y529230D01*
X204030Y529250D01*
X203990Y529345D01*
X203954Y529442D01*
X203942Y529458D01*
X203934Y529476D01*
X203829Y529607D01*
X200589Y532848D01*
X198191Y538636D01*
X198191Y544901D01*
X200589Y550690D01*
X203556Y553657D01*
X203609Y553731D01*
X203669Y553801D01*
X203681Y553831D01*
X203700Y553857D01*
X203726Y553944D01*
X203760Y554029D01*
X203765Y554070D01*
X203772Y554092D01*
X203771Y554124D01*
X203779Y554195D01*
X203779Y561536D01*
X203764Y561626D01*
X203757Y561717D01*
X203744Y561747D01*
X203739Y561779D01*
X203696Y561860D01*
X203661Y561944D01*
X203635Y561976D01*
X203624Y561996D01*
X203601Y562019D01*
X203556Y562075D01*
X196014Y569616D01*
X195940Y569669D01*
X195871Y569729D01*
X195841Y569741D01*
X195814Y569760D01*
X195728Y569787D01*
X195643Y569821D01*
X195602Y569825D01*
X195579Y569832D01*
X195547Y569831D01*
X195476Y569839D01*
X154524Y569839D01*
X154434Y569825D01*
X154343Y569817D01*
X154313Y569805D01*
X154281Y569800D01*
X154201Y569757D01*
X154117Y569721D01*
X154085Y569695D01*
X154064Y569684D01*
X154042Y569661D01*
X153986Y569616D01*
X130384Y546014D01*
X130331Y545940D01*
X130271Y545871D01*
X130259Y545841D01*
X130240Y545815D01*
X130213Y545728D01*
X130179Y545643D01*
X130175Y545602D01*
X130168Y545579D01*
X130169Y545547D01*
X130161Y545476D01*
X130161Y474524D01*
X130162Y474518D01*
X130162Y474517D01*
X130162Y474515D01*
X130175Y474434D01*
X130183Y474343D01*
X130195Y474313D01*
X130200Y474281D01*
X130243Y474201D01*
X130279Y474117D01*
X130305Y474085D01*
X130316Y474064D01*
X130339Y474042D01*
X130384Y473986D01*
X198614Y405756D01*
X200161Y402021D01*
X200161Y306806D01*
X200175Y306716D01*
X200183Y306625D01*
X200195Y306595D01*
X200200Y306563D01*
X200243Y306482D01*
X200279Y306398D01*
X200305Y306366D01*
X200316Y306345D01*
X200339Y306323D01*
X200384Y306267D01*
X269640Y237011D01*
X269698Y236969D01*
X269750Y236920D01*
X269797Y236898D01*
X269839Y236868D01*
X269908Y236847D01*
X269973Y236816D01*
X270025Y236811D01*
X270075Y236795D01*
X270146Y236797D01*
X270217Y236789D01*
X270268Y236800D01*
X270320Y236802D01*
X270388Y236826D01*
X270458Y236842D01*
X270503Y236868D01*
X270551Y236886D01*
X270607Y236931D01*
X270669Y236968D01*
X270703Y237007D01*
X270743Y237040D01*
X270782Y237100D01*
X270829Y237155D01*
X270848Y237203D01*
X270876Y237247D01*
X270894Y237316D01*
X270921Y237383D01*
X270929Y237454D01*
X270937Y237485D01*
X270935Y237509D01*
X270939Y237550D01*
X270939Y250623D01*
X271906Y252957D01*
X273693Y254744D01*
X276027Y255711D01*
X298553Y255711D01*
X300887Y254744D01*
X302674Y252957D01*
X303641Y250623D01*
X303641Y228097D01*
X303166Y226951D01*
X303145Y226863D01*
X303117Y226776D01*
X303117Y226743D01*
X303110Y226712D01*
X303119Y226621D01*
X303120Y226530D01*
X303131Y226490D01*
X303133Y226467D01*
X303146Y226438D01*
X303166Y226369D01*
X303641Y225223D01*
X303641Y202697D01*
X303026Y201213D01*
X303016Y201169D01*
X302996Y201127D01*
X302988Y201050D01*
X302970Y200974D01*
X302974Y200928D01*
X302969Y200883D01*
X302986Y200806D01*
X302993Y200729D01*
X303012Y200687D01*
X303022Y200642D01*
X303062Y200575D01*
X303093Y200504D01*
X303124Y200470D01*
X303148Y200431D01*
X303207Y200380D01*
X303260Y200323D01*
X303300Y200301D01*
X303335Y200271D01*
X303407Y200242D01*
X303475Y200205D01*
X303520Y200196D01*
X303563Y200179D01*
X303699Y200164D01*
X303717Y200161D01*
X303722Y200162D01*
X303730Y200161D01*
X305476Y200161D01*
X305566Y200175D01*
X305657Y200183D01*
X305687Y200195D01*
X305719Y200200D01*
X305799Y200243D01*
X305883Y200279D01*
X305915Y200305D01*
X305936Y200316D01*
X305958Y200339D01*
X306014Y200384D01*
X349616Y243986D01*
X349669Y244060D01*
X349729Y244129D01*
X349741Y244159D01*
X349760Y244186D01*
X349787Y244272D01*
X349821Y244357D01*
X349825Y244398D01*
X349832Y244421D01*
X349831Y244453D01*
X349839Y244524D01*
X349839Y282021D01*
X351386Y285756D01*
X420284Y354654D01*
X424019Y356201D01*
X429793Y356201D01*
X429798Y356201D01*
X429802Y356201D01*
X429919Y356221D01*
X430036Y356240D01*
X430040Y356243D01*
X430044Y356243D01*
X430150Y356301D01*
X430254Y356356D01*
X430257Y356359D01*
X430260Y356361D01*
X430342Y356449D01*
X430423Y356534D01*
X430425Y356538D01*
X430428Y356541D01*
X430477Y356649D01*
X430527Y356757D01*
X430527Y356761D01*
X430529Y356765D01*
X430554Y356931D01*
X430749Y361730D01*
X458257Y389239D01*
X521304Y389239D01*
X559239Y351304D01*
X559239Y11717D01*
X559242Y11697D01*
X559240Y11677D01*
X559262Y11576D01*
X559279Y11474D01*
X559288Y11456D01*
X559292Y11437D01*
X559345Y11348D01*
X559394Y11257D01*
X559408Y11243D01*
X559418Y11226D01*
X559497Y11158D01*
X559572Y11087D01*
X559590Y11079D01*
X559605Y11066D01*
X559701Y11027D01*
X559795Y10984D01*
X559815Y10981D01*
X559833Y10974D01*
X560000Y10955D01*
X768777Y10955D01*
X768796Y10959D01*
G37*
G36*
X550020Y10959D02*
X550020Y10959D01*
X550039Y10956D01*
X550141Y10978D01*
X550243Y10995D01*
X550260Y11004D01*
X550280Y11009D01*
X550369Y11062D01*
X550460Y11110D01*
X550474Y11125D01*
X550491Y11135D01*
X550558Y11214D01*
X550630Y11289D01*
X550638Y11307D01*
X550651Y11322D01*
X550690Y11418D01*
X550733Y11512D01*
X550735Y11531D01*
X550743Y11550D01*
X550761Y11717D01*
X550761Y350000D01*
X550747Y350090D01*
X550739Y350181D01*
X550727Y350211D01*
X550722Y350243D01*
X550679Y350323D01*
X550643Y350407D01*
X550617Y350439D01*
X550606Y350460D01*
X550583Y350482D01*
X550538Y350538D01*
X520538Y380538D01*
X520464Y380591D01*
X520395Y380651D01*
X520365Y380663D01*
X520339Y380682D01*
X520252Y380709D01*
X520167Y380743D01*
X520126Y380747D01*
X520103Y380754D01*
X520071Y380753D01*
X520000Y380761D01*
X460000Y380761D01*
X459910Y380747D01*
X459819Y380739D01*
X459789Y380727D01*
X459757Y380722D01*
X459677Y380679D01*
X459593Y380643D01*
X459561Y380617D01*
X459540Y380606D01*
X459518Y380583D01*
X459462Y380538D01*
X439462Y360538D01*
X439409Y360464D01*
X439349Y360395D01*
X439337Y360365D01*
X439318Y360339D01*
X439291Y360252D01*
X439257Y360167D01*
X439253Y360126D01*
X439246Y360103D01*
X439247Y360071D01*
X439239Y360000D01*
X439239Y224882D01*
X439242Y224862D01*
X439240Y224843D01*
X439262Y224741D01*
X439279Y224639D01*
X439288Y224622D01*
X439292Y224602D01*
X439345Y224513D01*
X439394Y224422D01*
X439408Y224408D01*
X439418Y224391D01*
X439497Y224324D01*
X439572Y224252D01*
X439590Y224244D01*
X439605Y224231D01*
X439701Y224192D01*
X439795Y224149D01*
X439815Y224147D01*
X439833Y224139D01*
X440000Y224121D01*
X455598Y224121D01*
X455618Y224124D01*
X455637Y224122D01*
X455739Y224144D01*
X455841Y224160D01*
X455858Y224170D01*
X455878Y224174D01*
X455967Y224227D01*
X456058Y224276D01*
X456072Y224290D01*
X456089Y224300D01*
X456156Y224379D01*
X456228Y224454D01*
X456236Y224472D01*
X456249Y224487D01*
X456288Y224583D01*
X456331Y224677D01*
X456333Y224697D01*
X456341Y224715D01*
X456359Y224882D01*
X456359Y225223D01*
X456834Y226369D01*
X456855Y226457D01*
X456883Y226544D01*
X456883Y226577D01*
X456890Y226608D01*
X456881Y226699D01*
X456880Y226790D01*
X456869Y226830D01*
X456867Y226853D01*
X456854Y226882D01*
X456834Y226951D01*
X456359Y228097D01*
X456359Y250623D01*
X457326Y252957D01*
X459113Y254744D01*
X461447Y255711D01*
X483973Y255711D01*
X486307Y254744D01*
X488094Y252957D01*
X489061Y250623D01*
X489061Y228097D01*
X488586Y226951D01*
X488565Y226863D01*
X488537Y226776D01*
X488537Y226743D01*
X488530Y226712D01*
X488539Y226621D01*
X488540Y226530D01*
X488551Y226490D01*
X488553Y226467D01*
X488566Y226438D01*
X488586Y226369D01*
X489061Y225223D01*
X489061Y202697D01*
X488094Y200363D01*
X486307Y198576D01*
X483973Y197609D01*
X483632Y197609D01*
X483612Y197606D01*
X483593Y197608D01*
X483491Y197586D01*
X483389Y197570D01*
X483372Y197560D01*
X483352Y197556D01*
X483263Y197503D01*
X483172Y197454D01*
X483158Y197440D01*
X483141Y197430D01*
X483074Y197351D01*
X483002Y197276D01*
X482994Y197258D01*
X482981Y197243D01*
X482942Y197147D01*
X482899Y197053D01*
X482897Y197033D01*
X482889Y197015D01*
X482871Y196848D01*
X482871Y170689D01*
X481324Y166954D01*
X449726Y135356D01*
X445991Y133809D01*
X218737Y133809D01*
X218647Y133795D01*
X218556Y133787D01*
X218527Y133775D01*
X218495Y133770D01*
X218414Y133727D01*
X218330Y133691D01*
X218298Y133665D01*
X218277Y133654D01*
X218255Y133631D01*
X218199Y133586D01*
X197273Y112660D01*
X193538Y111113D01*
X95624Y111113D01*
X95534Y111098D01*
X95443Y111091D01*
X95414Y111079D01*
X95382Y111073D01*
X95301Y111031D01*
X95217Y110995D01*
X95185Y110969D01*
X95164Y110958D01*
X95142Y110935D01*
X95086Y110890D01*
X90827Y106631D01*
X84478Y104001D01*
X55763Y104001D01*
X49414Y106631D01*
X44555Y111490D01*
X41926Y117838D01*
X41926Y124710D01*
X44555Y131058D01*
X49414Y135917D01*
X55763Y138547D01*
X84478Y138547D01*
X90827Y135917D01*
X95086Y131658D01*
X95160Y131605D01*
X95230Y131545D01*
X95260Y131533D01*
X95286Y131514D01*
X95373Y131487D01*
X95458Y131453D01*
X95499Y131449D01*
X95521Y131442D01*
X95553Y131443D01*
X95624Y131435D01*
X186993Y131435D01*
X187083Y131449D01*
X187174Y131457D01*
X187204Y131469D01*
X187236Y131474D01*
X187317Y131517D01*
X187401Y131553D01*
X187433Y131579D01*
X187453Y131590D01*
X187476Y131613D01*
X187532Y131658D01*
X205336Y149462D01*
X205377Y149520D01*
X205427Y149572D01*
X205449Y149619D01*
X205479Y149661D01*
X205500Y149730D01*
X205530Y149795D01*
X205536Y149847D01*
X205552Y149897D01*
X205550Y149968D01*
X205558Y150039D01*
X205547Y150090D01*
X205545Y150142D01*
X205521Y150210D01*
X205505Y150280D01*
X205479Y150324D01*
X205461Y150373D01*
X205416Y150429D01*
X205379Y150491D01*
X205340Y150525D01*
X205307Y150565D01*
X205247Y150604D01*
X205192Y150651D01*
X205144Y150670D01*
X205100Y150698D01*
X205031Y150716D01*
X204964Y150743D01*
X204893Y150751D01*
X204862Y150759D01*
X204838Y150757D01*
X204797Y150761D01*
X11603Y150761D01*
X11583Y150758D01*
X11563Y150760D01*
X11462Y150738D01*
X11360Y150722D01*
X11343Y150712D01*
X11323Y150708D01*
X11234Y150655D01*
X11143Y150606D01*
X11129Y150592D01*
X11112Y150582D01*
X11045Y150503D01*
X10973Y150428D01*
X10965Y150410D01*
X10952Y150395D01*
X10913Y150299D01*
X10870Y150205D01*
X10868Y150185D01*
X10860Y150167D01*
X10842Y150000D01*
X10842Y111794D01*
X10853Y111723D01*
X10855Y111652D01*
X10873Y111603D01*
X10881Y111551D01*
X10915Y111488D01*
X10940Y111421D01*
X10972Y111380D01*
X10996Y111334D01*
X11048Y111285D01*
X11093Y111229D01*
X11137Y111200D01*
X11175Y111165D01*
X11240Y111134D01*
X11300Y111096D01*
X11351Y111083D01*
X11398Y111061D01*
X11469Y111053D01*
X11539Y111036D01*
X11591Y111040D01*
X11642Y111034D01*
X11713Y111049D01*
X11784Y111055D01*
X11832Y111075D01*
X11883Y111086D01*
X11944Y111123D01*
X12010Y111151D01*
X12066Y111196D01*
X12094Y111212D01*
X12109Y111230D01*
X12141Y111256D01*
X13350Y112465D01*
X15065Y113710D01*
X16953Y114672D01*
X18968Y115327D01*
X20597Y115585D01*
X20597Y92036D01*
X20600Y92016D01*
X20598Y91997D01*
X20620Y91895D01*
X20637Y91793D01*
X20646Y91776D01*
X20651Y91756D01*
X20704Y91667D01*
X20752Y91576D01*
X20767Y91562D01*
X20777Y91545D01*
X20855Y91478D01*
X20930Y91407D01*
X20948Y91398D01*
X20964Y91385D01*
X21060Y91346D01*
X21154Y91303D01*
X21173Y91301D01*
X21192Y91293D01*
X21359Y91275D01*
X22121Y91275D01*
X22121Y91273D01*
X21359Y91273D01*
X21339Y91270D01*
X21319Y91272D01*
X21218Y91250D01*
X21116Y91233D01*
X21098Y91224D01*
X21079Y91220D01*
X20990Y91167D01*
X20898Y91118D01*
X20885Y91104D01*
X20868Y91094D01*
X20800Y91015D01*
X20729Y90940D01*
X20721Y90922D01*
X20708Y90907D01*
X20669Y90810D01*
X20625Y90717D01*
X20623Y90697D01*
X20616Y90679D01*
X20597Y90512D01*
X20597Y66963D01*
X18968Y67221D01*
X16953Y67876D01*
X15065Y68838D01*
X13350Y70083D01*
X12141Y71292D01*
X12083Y71334D01*
X12031Y71383D01*
X11984Y71405D01*
X11941Y71436D01*
X11873Y71457D01*
X11808Y71487D01*
X11756Y71493D01*
X11706Y71508D01*
X11635Y71506D01*
X11563Y71514D01*
X11513Y71503D01*
X11461Y71502D01*
X11393Y71477D01*
X11323Y71462D01*
X11278Y71435D01*
X11229Y71417D01*
X11173Y71372D01*
X11112Y71336D01*
X11078Y71296D01*
X11037Y71263D01*
X10999Y71203D01*
X10952Y71149D01*
X10933Y71100D01*
X10904Y71057D01*
X10887Y70987D01*
X10860Y70921D01*
X10852Y70849D01*
X10844Y70818D01*
X10846Y70795D01*
X10842Y70754D01*
X10842Y11717D01*
X10845Y11697D01*
X10843Y11677D01*
X10865Y11576D01*
X10881Y11474D01*
X10891Y11456D01*
X10895Y11437D01*
X10948Y11348D01*
X10996Y11257D01*
X11011Y11243D01*
X11021Y11226D01*
X11100Y11158D01*
X11175Y11087D01*
X11193Y11079D01*
X11208Y11066D01*
X11304Y11027D01*
X11398Y10984D01*
X11418Y10981D01*
X11436Y10974D01*
X11603Y10955D01*
X550000Y10955D01*
X550020Y10959D01*
G37*
%LPC*%
G36*
X161805Y503882D02*
X161805Y503882D01*
X155406Y505597D01*
X149669Y508909D01*
X144984Y513594D01*
X141672Y519331D01*
X139957Y525730D01*
X139957Y532355D01*
X141672Y538755D01*
X144984Y544492D01*
X149669Y549177D01*
X155406Y552489D01*
X161805Y554204D01*
X168430Y554204D01*
X174830Y552489D01*
X180567Y549177D01*
X185252Y544492D01*
X188564Y538755D01*
X190279Y532355D01*
X190279Y525730D01*
X188564Y519331D01*
X185252Y513594D01*
X180567Y508909D01*
X174830Y505597D01*
X168430Y503882D01*
X161805Y503882D01*
G37*
%LPD*%
%LPC*%
G36*
X162012Y13780D02*
X162012Y13780D01*
X155613Y15495D01*
X149875Y18807D01*
X145191Y23492D01*
X141878Y29229D01*
X140164Y35628D01*
X140164Y42253D01*
X141878Y48653D01*
X145191Y54390D01*
X149875Y59074D01*
X155613Y62387D01*
X162012Y64102D01*
X168637Y64102D01*
X175036Y62387D01*
X180773Y59074D01*
X185458Y54390D01*
X188770Y48653D01*
X190485Y42253D01*
X190485Y35628D01*
X188770Y29229D01*
X185458Y23492D01*
X180773Y18807D01*
X175036Y15495D01*
X168637Y13780D01*
X162012Y13780D01*
G37*
%LPD*%
%LPC*%
G36*
X284038Y304289D02*
X284038Y304289D01*
X278028Y306779D01*
X273429Y311378D01*
X270939Y317388D01*
X270939Y323892D01*
X273429Y329902D01*
X278028Y334501D01*
X279197Y334986D01*
X279287Y335041D01*
X279379Y335092D01*
X279391Y335106D01*
X279406Y335115D01*
X279474Y335197D01*
X279544Y335274D01*
X279552Y335291D01*
X279563Y335305D01*
X279601Y335403D01*
X279643Y335499D01*
X279645Y335518D01*
X279651Y335535D01*
X279656Y335640D01*
X279665Y335744D01*
X279661Y335762D01*
X279662Y335780D01*
X279633Y335881D01*
X279608Y335984D01*
X279598Y335999D01*
X279593Y336016D01*
X279533Y336103D01*
X279478Y336192D01*
X279461Y336207D01*
X279453Y336219D01*
X279428Y336237D01*
X279354Y336305D01*
X279120Y336474D01*
X277724Y337870D01*
X276564Y339467D01*
X275668Y341226D01*
X275058Y343103D01*
X274834Y344517D01*
X286528Y344517D01*
X286548Y344520D01*
X286567Y344518D01*
X286669Y344540D01*
X286771Y344557D01*
X286788Y344566D01*
X286808Y344570D01*
X286897Y344623D01*
X286988Y344672D01*
X287002Y344686D01*
X287019Y344696D01*
X287086Y344775D01*
X287157Y344850D01*
X287166Y344868D01*
X287179Y344883D01*
X287217Y344979D01*
X287261Y345073D01*
X287263Y345093D01*
X287271Y345111D01*
X287289Y345278D01*
X287289Y346041D01*
X287291Y346041D01*
X287291Y345278D01*
X287294Y345258D01*
X287292Y345239D01*
X287314Y345137D01*
X287331Y345035D01*
X287340Y345018D01*
X287344Y344998D01*
X287397Y344909D01*
X287446Y344818D01*
X287460Y344804D01*
X287470Y344787D01*
X287549Y344720D01*
X287624Y344649D01*
X287642Y344640D01*
X287657Y344627D01*
X287753Y344588D01*
X287847Y344545D01*
X287867Y344543D01*
X287885Y344535D01*
X288052Y344517D01*
X299746Y344517D01*
X299522Y343103D01*
X298912Y341226D01*
X298016Y339467D01*
X296856Y337870D01*
X295460Y336474D01*
X295226Y336305D01*
X295152Y336230D01*
X295075Y336159D01*
X295066Y336143D01*
X295053Y336130D01*
X295007Y336035D01*
X294956Y335944D01*
X294953Y335926D01*
X294945Y335909D01*
X294931Y335805D01*
X294913Y335702D01*
X294915Y335683D01*
X294913Y335665D01*
X294933Y335562D01*
X294949Y335458D01*
X294957Y335442D01*
X294960Y335424D01*
X295012Y335333D01*
X295060Y335239D01*
X295073Y335226D01*
X295082Y335210D01*
X295160Y335140D01*
X295236Y335067D01*
X295255Y335056D01*
X295266Y335047D01*
X295295Y335034D01*
X295383Y334986D01*
X296552Y334501D01*
X301151Y329902D01*
X303641Y323892D01*
X303641Y317388D01*
X301151Y311378D01*
X296552Y306779D01*
X290542Y304289D01*
X284038Y304289D01*
G37*
%LPD*%
%LPC*%
G36*
X469458Y304289D02*
X469458Y304289D01*
X463448Y306779D01*
X458849Y311378D01*
X456359Y317388D01*
X456359Y323892D01*
X458849Y329902D01*
X463448Y334501D01*
X464617Y334986D01*
X464707Y335041D01*
X464799Y335092D01*
X464811Y335106D01*
X464826Y335115D01*
X464894Y335197D01*
X464964Y335274D01*
X464972Y335291D01*
X464983Y335305D01*
X465021Y335403D01*
X465063Y335499D01*
X465065Y335518D01*
X465071Y335535D01*
X465076Y335640D01*
X465085Y335744D01*
X465081Y335762D01*
X465082Y335780D01*
X465053Y335881D01*
X465028Y335984D01*
X465018Y335999D01*
X465013Y336016D01*
X464953Y336103D01*
X464898Y336192D01*
X464881Y336207D01*
X464873Y336219D01*
X464848Y336237D01*
X464774Y336305D01*
X464540Y336474D01*
X463144Y337870D01*
X461984Y339467D01*
X461088Y341226D01*
X460478Y343103D01*
X460254Y344517D01*
X471948Y344517D01*
X471968Y344520D01*
X471987Y344518D01*
X472089Y344540D01*
X472191Y344557D01*
X472208Y344566D01*
X472228Y344570D01*
X472317Y344623D01*
X472408Y344672D01*
X472422Y344686D01*
X472439Y344696D01*
X472506Y344775D01*
X472577Y344850D01*
X472586Y344868D01*
X472599Y344883D01*
X472637Y344979D01*
X472681Y345073D01*
X472683Y345093D01*
X472691Y345111D01*
X472709Y345278D01*
X472709Y346041D01*
X472711Y346041D01*
X472711Y345278D01*
X472714Y345258D01*
X472712Y345239D01*
X472734Y345137D01*
X472751Y345035D01*
X472760Y345018D01*
X472764Y344998D01*
X472817Y344909D01*
X472866Y344818D01*
X472880Y344804D01*
X472890Y344787D01*
X472969Y344720D01*
X473044Y344649D01*
X473062Y344640D01*
X473077Y344627D01*
X473173Y344588D01*
X473267Y344545D01*
X473287Y344543D01*
X473305Y344535D01*
X473472Y344517D01*
X485166Y344517D01*
X484942Y343103D01*
X484332Y341226D01*
X483436Y339467D01*
X482276Y337870D01*
X480880Y336474D01*
X480646Y336305D01*
X480572Y336230D01*
X480495Y336159D01*
X480486Y336143D01*
X480473Y336130D01*
X480427Y336035D01*
X480376Y335944D01*
X480373Y335926D01*
X480365Y335909D01*
X480351Y335805D01*
X480333Y335702D01*
X480335Y335683D01*
X480333Y335665D01*
X480353Y335562D01*
X480369Y335458D01*
X480377Y335442D01*
X480380Y335424D01*
X480432Y335333D01*
X480480Y335239D01*
X480493Y335226D01*
X480502Y335210D01*
X480580Y335140D01*
X480656Y335067D01*
X480675Y335056D01*
X480686Y335047D01*
X480715Y335034D01*
X480803Y334986D01*
X481972Y334501D01*
X486571Y329902D01*
X489061Y323892D01*
X489061Y317388D01*
X486571Y311378D01*
X481972Y306779D01*
X475962Y304289D01*
X469458Y304289D01*
G37*
%LPD*%
%LPC*%
G36*
X23644Y92797D02*
X23644Y92797D01*
X23644Y115585D01*
X25273Y115327D01*
X27288Y114672D01*
X29176Y113710D01*
X30891Y112465D01*
X32389Y110966D01*
X33635Y109252D01*
X34597Y107364D01*
X35252Y105348D01*
X35583Y103256D01*
X35583Y92797D01*
X23644Y92797D01*
G37*
%LPD*%
%LPC*%
G36*
X71644Y62797D02*
X71644Y62797D01*
X71644Y74737D01*
X82102Y74737D01*
X84195Y74405D01*
X86210Y73750D01*
X88098Y72788D01*
X89813Y71543D01*
X91311Y70044D01*
X92557Y68330D01*
X93519Y66442D01*
X94174Y64426D01*
X94432Y62797D01*
X71644Y62797D01*
G37*
%LPD*%
%LPC*%
G36*
X45809Y62797D02*
X45809Y62797D01*
X46067Y64426D01*
X46722Y66442D01*
X47684Y68330D01*
X48930Y70044D01*
X50428Y71543D01*
X52143Y72788D01*
X54031Y73750D01*
X56046Y74405D01*
X58139Y74737D01*
X68597Y74737D01*
X68597Y62797D01*
X45809Y62797D01*
G37*
%LPD*%
%LPC*%
G36*
X23644Y89751D02*
X23644Y89751D01*
X35583Y89751D01*
X35583Y79292D01*
X35252Y77200D01*
X34597Y75184D01*
X33635Y73296D01*
X32389Y71581D01*
X30891Y70083D01*
X29176Y68838D01*
X27288Y67876D01*
X25273Y67221D01*
X23644Y66963D01*
X23644Y89751D01*
G37*
%LPD*%
%LPC*%
G36*
X71644Y47811D02*
X71644Y47811D01*
X71644Y59751D01*
X94432Y59751D01*
X94174Y58122D01*
X93519Y56106D01*
X92557Y54218D01*
X91311Y52503D01*
X89813Y51005D01*
X88098Y49760D01*
X86210Y48798D01*
X84195Y48143D01*
X82102Y47811D01*
X71644Y47811D01*
G37*
%LPD*%
%LPC*%
G36*
X58139Y47811D02*
X58139Y47811D01*
X56046Y48143D01*
X54031Y48798D01*
X52143Y49760D01*
X50428Y51005D01*
X48930Y52503D01*
X47684Y54218D01*
X46722Y56106D01*
X46067Y58122D01*
X45809Y59751D01*
X68597Y59751D01*
X68597Y47811D01*
X58139Y47811D01*
G37*
%LPD*%
%LPC*%
G36*
X474233Y347563D02*
X474233Y347563D01*
X474233Y358496D01*
X475647Y358272D01*
X477524Y357662D01*
X479283Y356766D01*
X480880Y355606D01*
X482276Y354210D01*
X483436Y352613D01*
X484332Y350854D01*
X484942Y348977D01*
X485166Y347563D01*
X474233Y347563D01*
G37*
%LPD*%
%LPC*%
G36*
X288813Y347563D02*
X288813Y347563D01*
X288813Y358496D01*
X290227Y358272D01*
X292104Y357662D01*
X293863Y356766D01*
X295460Y355606D01*
X296856Y354210D01*
X298016Y352613D01*
X298912Y350854D01*
X299522Y348977D01*
X299746Y347563D01*
X288813Y347563D01*
G37*
%LPD*%
%LPC*%
G36*
X460254Y347563D02*
X460254Y347563D01*
X460478Y348977D01*
X461088Y350854D01*
X461984Y352613D01*
X463144Y354210D01*
X464540Y355606D01*
X466137Y356766D01*
X467896Y357662D01*
X469773Y358272D01*
X471187Y358496D01*
X471187Y347563D01*
X460254Y347563D01*
G37*
%LPD*%
%LPC*%
G36*
X274834Y347563D02*
X274834Y347563D01*
X275058Y348977D01*
X275668Y350854D01*
X276564Y352613D01*
X277724Y354210D01*
X279120Y355606D01*
X280717Y356766D01*
X282476Y357662D01*
X284353Y358272D01*
X285767Y358496D01*
X285767Y347563D01*
X274834Y347563D01*
G37*
%LPD*%
%LPC*%
G36*
X70120Y61273D02*
X70120Y61273D01*
X70120Y61275D01*
X70121Y61275D01*
X70121Y61273D01*
X70120Y61273D01*
G37*
%LPD*%
D10*
X22121Y80352D02*
X22121Y102196D01*
X59199Y61274D02*
X81043Y61274D01*
X81043Y121274D02*
X59199Y121274D01*
D11*
X213940Y516369D03*
X239340Y516369D03*
X264740Y516369D03*
X290140Y516369D03*
X315540Y516369D03*
X340940Y516369D03*
X366340Y516369D03*
X391740Y516369D03*
X417140Y516369D03*
X442540Y516369D03*
X467940Y516369D03*
X493340Y516369D03*
X518740Y516369D03*
X518740Y541769D03*
X493340Y541769D03*
X467940Y541769D03*
X442540Y541769D03*
X417140Y541769D03*
X391740Y541769D03*
X366340Y541769D03*
X340940Y541769D03*
X315540Y541769D03*
X290140Y541769D03*
X264740Y541769D03*
X239340Y541769D03*
X213940Y541769D03*
X544140Y516369D03*
X544140Y541769D03*
X569540Y516369D03*
X569540Y541769D03*
X594940Y516369D03*
X594940Y541769D03*
X620340Y516369D03*
X620340Y541769D03*
X645740Y516369D03*
X645740Y541769D03*
X671140Y516369D03*
X671140Y541769D03*
X696540Y516369D03*
X696540Y541769D03*
D12*
X472710Y346040D03*
D13*
X472710Y213960D03*
D12*
X287290Y346040D03*
X472710Y320640D03*
X287290Y320640D03*
D13*
X472710Y239360D03*
X287290Y213960D03*
X287290Y239360D03*
D14*
X3518Y605239D03*
X776655Y3843D03*
X776651Y605452D03*
X3729Y3769D03*
D15*
X3518Y605239D02*
X776438Y605239D01*
X776651Y605452D01*
X776651Y3847D01*
X776655Y3843D01*
X3802Y3843D01*
X3729Y3769D01*
X3729Y605029D01*
X3518Y605239D01*
D16*
X88847Y80000D02*
X70121Y61274D01*
X472710Y346040D02*
X503960Y346040D01*
X170000Y80000D02*
X88847Y80000D01*
X170000Y80000D02*
X220000Y130000D01*
X480000Y130000D01*
X530000Y180000D01*
X530000Y320000D01*
X503960Y346040D01*
D17*
X110000Y420000D03*
D16*
X426040Y346040D02*
X472710Y346040D01*
X310000Y190000D02*
X250000Y190000D01*
X170000Y270000D01*
X150000Y420000D02*
X110000Y420000D01*
X360000Y280000D02*
X426040Y346040D01*
X360000Y280000D02*
X360000Y240000D01*
X310000Y190000D01*
X170000Y270000D02*
X170000Y400000D01*
X150000Y420000D01*
X191517Y121274D02*
X70121Y121274D01*
X191517Y121274D02*
X214213Y143970D01*
X472710Y172710D02*
X472710Y213960D01*
X443970Y143970D02*
X214213Y143970D01*
X443970Y143970D02*
X472710Y172710D01*
D17*
X110000Y370000D03*
D16*
X353960Y213960D02*
X472710Y213960D01*
X220243Y200000D02*
X220000Y200000D01*
X220243Y200000D02*
X244213Y176030D01*
X316030Y176030D01*
X353960Y213960D01*
X220000Y200243D02*
X220000Y200000D01*
X220000Y200243D02*
X156030Y264213D01*
X156030Y353970D02*
X140000Y370000D01*
X110000Y370000D01*
X156030Y353970D02*
X156030Y264213D01*
X287290Y346040D02*
X320000Y378750D01*
X320000Y511908D02*
X315540Y516369D01*
X320000Y511908D02*
X320000Y378750D01*
X120000Y550000D02*
X150000Y580000D01*
X200000Y580000D01*
X213940Y566060D01*
X213940Y541769D01*
X282050Y219200D02*
X287290Y213960D01*
X282050Y219200D02*
X273082Y219200D01*
X190000Y302282D01*
X190000Y400000D01*
X120000Y470000D01*
X120000Y550000D01*
M02*
