M48
;GenerationSoftware,Autodesk,EAGLE,9.1.2*%
;CreationDate,2019-06-21T22:11:22Z*%
FMAT,2
ICI,OFF
METRIC,TZ,000.000
T6C0.350
T5C0.800
T4C1.000
T3C1.016
T2C1.200
T1C3.000
%
G90
M71
T1
X16532Y3894
X16512Y52904
X74515Y3897
X74514Y52890
T2
X47271Y21396
X47271Y34604
X28729Y21396
X47271Y23936
X28729Y32064
X28729Y23936
X47271Y32064
X28729Y34604
T3
X41714Y54177
X62034Y54177
X21394Y51637
X26474Y51637
X29014Y51637
X31554Y51637
X34094Y51637
X36634Y51637
X39174Y51637
X41714Y51637
X44254Y51637
X46794Y51637
X49334Y51637
X51874Y51637
X51874Y54177
X49334Y54177
X46794Y54177
X44254Y54177
X23934Y51637
X39174Y54177
X36634Y54177
X34094Y54177
X31554Y54177
X29014Y54177
X26474Y54177
X23934Y54177
X21394Y54177
X54414Y51637
X54414Y54177
X56954Y51637
X56954Y54177
X59494Y51637
X59494Y54177
X62034Y51637
X64574Y51637
X64574Y54177
X67114Y51637
X67114Y54177
X69654Y51637
X69654Y54177
T4
X7012Y12127
X11000Y37000
X11000Y42000
T5
X7012Y6127
X2212Y9127
T6
X77665Y384
X77665Y60545
X373Y377
X352Y60524
M30