G04 EAGLE Gerber RS-274X export*
G75*
%MOMM*%
%FSLAX34Y34*%
%LPD*%
%AMOC8*
5,1,8,0,0,1.08239X$1,22.5*%
G01*
%ADD10C,0.100000*%
%ADD11C,0.101600*%
%ADD12C,0.127000*%
%ADD13C,0.254000*%
%ADD14C,0.203200*%


D10*
X25121Y-16226D02*
X38121Y-16226D01*
X102121Y-16226D01*
X115121Y-16226D01*
X110121Y18774D02*
X25121Y18774D01*
X110121Y18774D02*
X115121Y18774D01*
X110121Y18774D02*
X110121Y103774D01*
X115121Y103774D01*
X115121Y-16226D01*
X110121Y103774D02*
X110121Y118774D01*
X110121Y123774D01*
X102121Y-6226D02*
X102121Y-16226D01*
X102121Y3774D02*
X102121Y13774D01*
X102121Y23774D02*
X102121Y33774D01*
X102121Y43774D02*
X102121Y53774D01*
X102121Y63774D02*
X102121Y73774D01*
X38121Y-6226D02*
X38121Y-16226D01*
X38121Y3774D02*
X38121Y13774D01*
X38121Y23774D02*
X38121Y33774D01*
X38121Y43774D02*
X38121Y53774D01*
X38121Y63774D02*
X38121Y73774D01*
X57621Y73774D01*
X65121Y73774D01*
X75121Y73774D02*
X82621Y73774D01*
X102121Y73774D01*
X82621Y3774D02*
X82617Y3470D01*
X82606Y3165D01*
X82588Y2862D01*
X82562Y2558D01*
X82528Y2256D01*
X82488Y1954D01*
X82440Y1653D01*
X82385Y1354D01*
X82322Y1056D01*
X82252Y760D01*
X82175Y465D01*
X82091Y173D01*
X82000Y-118D01*
X81901Y-406D01*
X81796Y-691D01*
X81684Y-974D01*
X81565Y-1255D01*
X81439Y-1532D01*
X81307Y-1806D01*
X81167Y-2076D01*
X81022Y-2344D01*
X80869Y-2607D01*
X80711Y-2867D01*
X80546Y-3123D01*
X80375Y-3375D01*
X80198Y-3622D01*
X80015Y-3866D01*
X79826Y-4104D01*
X79631Y-4338D01*
X79431Y-4567D01*
X79225Y-4792D01*
X79013Y-5011D01*
X78797Y-5225D01*
X78575Y-5433D01*
X78349Y-5637D01*
X78117Y-5834D01*
X77881Y-6026D01*
X77640Y-6212D01*
X77394Y-6392D01*
X77145Y-6566D01*
X76891Y-6734D01*
X76633Y-6896D01*
X76371Y-7051D01*
X76106Y-7200D01*
X75837Y-7343D01*
X75564Y-7479D01*
X75289Y-7608D01*
X75010Y-7730D01*
X74728Y-7846D01*
X74444Y-7955D01*
X74157Y-8056D01*
X73868Y-8151D01*
X73576Y-8239D01*
X73283Y-8320D01*
X72987Y-8393D01*
X72690Y-8459D01*
X72391Y-8518D01*
X72091Y-8570D01*
X71790Y-8614D01*
X71488Y-8651D01*
X71185Y-8681D01*
X70882Y-8703D01*
X70578Y-8718D01*
X70273Y-8725D01*
X69969Y-8725D01*
X69664Y-8718D01*
X69360Y-8703D01*
X69057Y-8681D01*
X68754Y-8651D01*
X68452Y-8614D01*
X68151Y-8570D01*
X67851Y-8518D01*
X67552Y-8459D01*
X67255Y-8393D01*
X66959Y-8320D01*
X66666Y-8239D01*
X66374Y-8151D01*
X66085Y-8056D01*
X65798Y-7955D01*
X65514Y-7846D01*
X65232Y-7730D01*
X64953Y-7608D01*
X64678Y-7479D01*
X64405Y-7343D01*
X64136Y-7200D01*
X63871Y-7051D01*
X63609Y-6896D01*
X63351Y-6734D01*
X63097Y-6566D01*
X62848Y-6392D01*
X62602Y-6212D01*
X62361Y-6026D01*
X62125Y-5834D01*
X61893Y-5637D01*
X61667Y-5433D01*
X61445Y-5225D01*
X61229Y-5011D01*
X61017Y-4792D01*
X60811Y-4567D01*
X60611Y-4338D01*
X60416Y-4104D01*
X60227Y-3866D01*
X60044Y-3622D01*
X59867Y-3375D01*
X59696Y-3123D01*
X59531Y-2867D01*
X59373Y-2607D01*
X59220Y-2344D01*
X59075Y-2076D01*
X58935Y-1806D01*
X58803Y-1532D01*
X58677Y-1255D01*
X58558Y-974D01*
X58446Y-691D01*
X58341Y-406D01*
X58242Y-118D01*
X58151Y173D01*
X58067Y465D01*
X57990Y760D01*
X57920Y1056D01*
X57857Y1354D01*
X57802Y1653D01*
X57754Y1954D01*
X57714Y2256D01*
X57680Y2558D01*
X57654Y2862D01*
X57636Y3165D01*
X57625Y3470D01*
X57621Y3774D01*
X93621Y118774D02*
X110121Y118774D01*
X46621Y118774D02*
X30121Y118774D01*
X30121Y123774D02*
X46621Y123774D01*
X93621Y123774D02*
X110121Y123774D01*
X30121Y123774D02*
X30121Y118774D01*
X25121Y65674D02*
X25121Y-16226D01*
X42821Y103774D02*
X110121Y103774D01*
D11*
X124025Y-5923D02*
X133113Y-5923D01*
X124025Y-5924D02*
X123926Y-5926D01*
X123826Y-5932D01*
X123727Y-5941D01*
X123629Y-5954D01*
X123531Y-5971D01*
X123433Y-5992D01*
X123337Y-6017D01*
X123242Y-6045D01*
X123148Y-6077D01*
X123055Y-6112D01*
X122963Y-6151D01*
X122873Y-6194D01*
X122785Y-6239D01*
X122698Y-6289D01*
X122614Y-6341D01*
X122531Y-6397D01*
X122451Y-6455D01*
X122373Y-6517D01*
X122298Y-6582D01*
X122225Y-6650D01*
X122155Y-6720D01*
X122087Y-6793D01*
X122022Y-6868D01*
X121960Y-6946D01*
X121902Y-7026D01*
X121846Y-7109D01*
X121794Y-7193D01*
X121744Y-7280D01*
X121699Y-7368D01*
X121656Y-7458D01*
X121617Y-7550D01*
X121582Y-7643D01*
X121550Y-7737D01*
X121522Y-7832D01*
X121497Y-7928D01*
X121476Y-8026D01*
X121459Y-8124D01*
X121446Y-8222D01*
X121437Y-8321D01*
X121431Y-8421D01*
X121429Y-8520D01*
X121429Y-9818D01*
X130516Y-650D02*
X133113Y2596D01*
X121429Y2596D01*
X121429Y5841D02*
X121429Y-650D01*
D12*
X191534Y534021D02*
X195020Y534021D01*
X191534Y534020D02*
X191463Y534022D01*
X191391Y534028D01*
X191321Y534037D01*
X191251Y534050D01*
X191181Y534067D01*
X191113Y534088D01*
X191046Y534112D01*
X190980Y534140D01*
X190916Y534171D01*
X190853Y534206D01*
X190793Y534244D01*
X190734Y534285D01*
X190678Y534329D01*
X190624Y534376D01*
X190573Y534425D01*
X190525Y534478D01*
X190479Y534533D01*
X190437Y534590D01*
X190397Y534650D01*
X190361Y534711D01*
X190328Y534775D01*
X190299Y534840D01*
X190273Y534906D01*
X190250Y534974D01*
X190231Y535043D01*
X190216Y535113D01*
X190205Y535183D01*
X190197Y535254D01*
X190193Y535325D01*
X190193Y535397D01*
X190197Y535468D01*
X190205Y535539D01*
X190216Y535609D01*
X190231Y535679D01*
X190250Y535748D01*
X190273Y535816D01*
X190299Y535882D01*
X190328Y535947D01*
X190361Y536011D01*
X190397Y536072D01*
X190437Y536132D01*
X190479Y536189D01*
X190525Y536244D01*
X190573Y536297D01*
X190624Y536346D01*
X190678Y536393D01*
X190734Y536437D01*
X190793Y536478D01*
X190853Y536516D01*
X190916Y536551D01*
X190980Y536582D01*
X191046Y536610D01*
X191113Y536634D01*
X191181Y536655D01*
X191251Y536672D01*
X191321Y536685D01*
X191391Y536694D01*
X191463Y536700D01*
X191534Y536702D01*
X195020Y536702D01*
X193947Y539690D02*
X195020Y541030D01*
X190194Y541030D01*
X190194Y539690D02*
X190194Y542371D01*
D13*
X201537Y561006D02*
X201539Y561072D01*
X201545Y561138D01*
X201555Y561204D01*
X201568Y561269D01*
X201586Y561333D01*
X201607Y561395D01*
X201632Y561457D01*
X201660Y561517D01*
X201692Y561575D01*
X201728Y561631D01*
X201766Y561684D01*
X201808Y561736D01*
X201853Y561785D01*
X201900Y561831D01*
X201951Y561874D01*
X202003Y561914D01*
X202058Y561951D01*
X202115Y561985D01*
X202174Y562015D01*
X202235Y562042D01*
X202297Y562065D01*
X202360Y562084D01*
X202425Y562100D01*
X202490Y562112D01*
X202556Y562120D01*
X202622Y562124D01*
X202688Y562124D01*
X202754Y562120D01*
X202820Y562112D01*
X202885Y562100D01*
X202950Y562084D01*
X203013Y562065D01*
X203075Y562042D01*
X203136Y562015D01*
X203195Y561985D01*
X203252Y561951D01*
X203307Y561914D01*
X203359Y561874D01*
X203410Y561831D01*
X203457Y561785D01*
X203502Y561736D01*
X203544Y561684D01*
X203582Y561631D01*
X203618Y561575D01*
X203650Y561517D01*
X203678Y561457D01*
X203703Y561395D01*
X203724Y561333D01*
X203742Y561269D01*
X203755Y561204D01*
X203765Y561138D01*
X203771Y561072D01*
X203773Y561006D01*
X203771Y560940D01*
X203765Y560874D01*
X203755Y560808D01*
X203742Y560743D01*
X203724Y560679D01*
X203703Y560617D01*
X203678Y560555D01*
X203650Y560495D01*
X203618Y560437D01*
X203582Y560381D01*
X203544Y560328D01*
X203502Y560276D01*
X203457Y560227D01*
X203410Y560181D01*
X203359Y560138D01*
X203307Y560098D01*
X203252Y560061D01*
X203195Y560027D01*
X203136Y559997D01*
X203075Y559970D01*
X203013Y559947D01*
X202950Y559928D01*
X202885Y559912D01*
X202820Y559900D01*
X202754Y559892D01*
X202688Y559888D01*
X202622Y559888D01*
X202556Y559892D01*
X202490Y559900D01*
X202425Y559912D01*
X202360Y559928D01*
X202297Y559947D01*
X202235Y559970D01*
X202174Y559997D01*
X202115Y560027D01*
X202058Y560061D01*
X202003Y560098D01*
X201951Y560138D01*
X201900Y560181D01*
X201853Y560227D01*
X201808Y560276D01*
X201766Y560328D01*
X201728Y560381D01*
X201692Y560437D01*
X201660Y560495D01*
X201632Y560555D01*
X201607Y560617D01*
X201586Y560679D01*
X201568Y560743D01*
X201555Y560808D01*
X201545Y560874D01*
X201539Y560940D01*
X201537Y561006D01*
D14*
X711695Y554406D02*
X711695Y503606D01*
X711695Y554406D02*
X705345Y554406D01*
X705345Y503606D02*
X711695Y503606D01*
X688835Y554406D02*
X678675Y554406D01*
X663435Y554406D02*
X653275Y554406D01*
X638035Y554406D02*
X627875Y554406D01*
X612635Y554406D02*
X602475Y554406D01*
X587235Y554406D02*
X577075Y554406D01*
X561835Y554406D02*
X551675Y554406D01*
X536435Y554406D02*
X526275Y554406D01*
X511035Y554406D02*
X500875Y554406D01*
X485635Y554406D02*
X475475Y554406D01*
X460235Y554406D02*
X450075Y554406D01*
X678675Y503606D02*
X688835Y503606D01*
X663435Y503606D02*
X653275Y503606D01*
X638035Y503606D02*
X627875Y503606D01*
X612635Y503606D02*
X602475Y503606D01*
X587235Y503606D02*
X577075Y503606D01*
X561835Y503606D02*
X551675Y503606D01*
X536435Y503606D02*
X526275Y503606D01*
X511035Y503606D02*
X500875Y503606D01*
X485635Y503606D02*
X475475Y503606D01*
X460235Y503606D02*
X450075Y503606D01*
X434835Y554406D02*
X424675Y554406D01*
X409435Y554406D02*
X399275Y554406D01*
X384035Y554406D02*
X373875Y554406D01*
X358635Y554406D02*
X348475Y554406D01*
X333235Y554406D02*
X323075Y554406D01*
X307835Y554406D02*
X297675Y554406D01*
X282435Y554406D02*
X272275Y554406D01*
X257035Y554406D02*
X246875Y554406D01*
X231635Y554406D02*
X221475Y554406D01*
X424675Y503606D02*
X434835Y503606D01*
X409435Y503606D02*
X399275Y503606D01*
X384035Y503606D02*
X373875Y503606D01*
X358635Y503606D02*
X348475Y503606D01*
X333235Y503606D02*
X323075Y503606D01*
X307835Y503606D02*
X297675Y503606D01*
X282435Y503606D02*
X272275Y503606D01*
X257035Y503606D02*
X246875Y503606D01*
X231635Y503606D02*
X221475Y503606D01*
X198615Y503606D02*
X198615Y554406D01*
X198615Y503606D02*
X204965Y503606D01*
X204965Y554406D02*
X198615Y554406D01*
X205050Y499859D02*
X221560Y499859D01*
D12*
X269510Y363820D02*
X490490Y363820D01*
X269510Y363820D02*
X269510Y196180D01*
X490490Y196180D01*
X490490Y363820D01*
D11*
X394104Y379004D02*
X394104Y387442D01*
X394104Y379004D02*
X394102Y378891D01*
X394096Y378778D01*
X394086Y378665D01*
X394072Y378552D01*
X394055Y378440D01*
X394033Y378329D01*
X394008Y378219D01*
X393978Y378109D01*
X393945Y378001D01*
X393908Y377894D01*
X393868Y377788D01*
X393823Y377684D01*
X393775Y377581D01*
X393724Y377480D01*
X393669Y377381D01*
X393611Y377284D01*
X393549Y377189D01*
X393484Y377096D01*
X393416Y377006D01*
X393345Y376918D01*
X393270Y376832D01*
X393193Y376749D01*
X393113Y376669D01*
X393030Y376592D01*
X392944Y376517D01*
X392856Y376446D01*
X392766Y376378D01*
X392673Y376313D01*
X392578Y376251D01*
X392481Y376193D01*
X392382Y376138D01*
X392281Y376087D01*
X392178Y376039D01*
X392074Y375994D01*
X391968Y375954D01*
X391861Y375917D01*
X391753Y375884D01*
X391643Y375854D01*
X391533Y375829D01*
X391422Y375807D01*
X391310Y375790D01*
X391197Y375776D01*
X391084Y375766D01*
X390971Y375760D01*
X390858Y375758D01*
X390745Y375760D01*
X390632Y375766D01*
X390519Y375776D01*
X390406Y375790D01*
X390294Y375807D01*
X390183Y375829D01*
X390073Y375854D01*
X389963Y375884D01*
X389855Y375917D01*
X389748Y375954D01*
X389642Y375994D01*
X389538Y376039D01*
X389435Y376087D01*
X389334Y376138D01*
X389235Y376193D01*
X389138Y376251D01*
X389043Y376313D01*
X388950Y376378D01*
X388860Y376446D01*
X388772Y376517D01*
X388686Y376592D01*
X388603Y376669D01*
X388523Y376749D01*
X388446Y376832D01*
X388371Y376918D01*
X388300Y377006D01*
X388232Y377096D01*
X388167Y377189D01*
X388105Y377284D01*
X388047Y377381D01*
X387992Y377480D01*
X387941Y377581D01*
X387893Y377684D01*
X387848Y377788D01*
X387808Y377894D01*
X387771Y378001D01*
X387738Y378109D01*
X387708Y378219D01*
X387683Y378329D01*
X387661Y378440D01*
X387644Y378552D01*
X387630Y378665D01*
X387620Y378778D01*
X387614Y378891D01*
X387612Y379004D01*
X387613Y379004D02*
X387613Y387442D01*
X379810Y387442D02*
X379810Y375758D01*
X379810Y381600D02*
X381432Y382574D01*
X381433Y382573D02*
X381506Y382620D01*
X381577Y382669D01*
X381647Y382722D01*
X381713Y382778D01*
X381777Y382837D01*
X381839Y382898D01*
X381897Y382962D01*
X381953Y383029D01*
X382005Y383098D01*
X382055Y383170D01*
X382101Y383244D01*
X382144Y383319D01*
X382183Y383397D01*
X382219Y383476D01*
X382251Y383557D01*
X382280Y383639D01*
X382305Y383722D01*
X382326Y383806D01*
X382343Y383891D01*
X382357Y383977D01*
X382366Y384063D01*
X382372Y384150D01*
X382374Y384237D01*
X382372Y384324D01*
X382366Y384411D01*
X382356Y384497D01*
X382343Y384583D01*
X382325Y384668D01*
X382304Y384752D01*
X382279Y384835D01*
X382250Y384918D01*
X382218Y384998D01*
X382182Y385077D01*
X382143Y385155D01*
X382100Y385230D01*
X382053Y385304D01*
X382004Y385375D01*
X381951Y385445D01*
X381896Y385511D01*
X381837Y385575D01*
X381776Y385637D01*
X381711Y385696D01*
X381645Y385751D01*
X381576Y385804D01*
X381504Y385854D01*
X381431Y385900D01*
X381355Y385943D01*
X381278Y385982D01*
X381199Y386018D01*
X381118Y386051D01*
X381036Y386079D01*
X380953Y386105D01*
X380869Y386126D01*
X380783Y386143D01*
X380783Y386144D02*
X380643Y386168D01*
X380501Y386188D01*
X380360Y386204D01*
X380218Y386215D01*
X380075Y386223D01*
X379933Y386227D01*
X379790Y386228D01*
X379647Y386224D01*
X379505Y386216D01*
X379363Y386204D01*
X379221Y386188D01*
X379080Y386169D01*
X378939Y386145D01*
X378799Y386118D01*
X378660Y386086D01*
X378522Y386051D01*
X378384Y386012D01*
X378248Y385969D01*
X378114Y385923D01*
X377980Y385872D01*
X377848Y385819D01*
X377718Y385761D01*
X377589Y385700D01*
X377462Y385635D01*
X377336Y385567D01*
X377213Y385495D01*
X379810Y381600D02*
X378187Y380626D01*
X378186Y380627D02*
X378113Y380580D01*
X378042Y380531D01*
X377972Y380478D01*
X377906Y380422D01*
X377842Y380363D01*
X377780Y380302D01*
X377722Y380238D01*
X377666Y380171D01*
X377614Y380102D01*
X377564Y380030D01*
X377518Y379956D01*
X377475Y379881D01*
X377436Y379803D01*
X377400Y379724D01*
X377368Y379643D01*
X377339Y379561D01*
X377314Y379478D01*
X377293Y379394D01*
X377276Y379309D01*
X377262Y379223D01*
X377253Y379137D01*
X377247Y379050D01*
X377245Y378963D01*
X377247Y378876D01*
X377253Y378789D01*
X377263Y378703D01*
X377276Y378617D01*
X377294Y378532D01*
X377315Y378448D01*
X377340Y378365D01*
X377369Y378282D01*
X377401Y378202D01*
X377437Y378123D01*
X377476Y378045D01*
X377519Y377970D01*
X377566Y377896D01*
X377615Y377825D01*
X377668Y377755D01*
X377723Y377689D01*
X377782Y377625D01*
X377843Y377563D01*
X377908Y377504D01*
X377974Y377449D01*
X378043Y377396D01*
X378115Y377346D01*
X378188Y377300D01*
X378264Y377257D01*
X378341Y377218D01*
X378420Y377182D01*
X378501Y377149D01*
X378583Y377121D01*
X378666Y377095D01*
X378750Y377074D01*
X378835Y377057D01*
X378836Y377056D02*
X378976Y377032D01*
X379118Y377012D01*
X379259Y376996D01*
X379401Y376985D01*
X379544Y376977D01*
X379686Y376973D01*
X379829Y376972D01*
X379972Y376976D01*
X380114Y376984D01*
X380256Y376996D01*
X380398Y377012D01*
X380539Y377031D01*
X380680Y377055D01*
X380820Y377082D01*
X380959Y377114D01*
X381097Y377149D01*
X381235Y377188D01*
X381371Y377231D01*
X381505Y377277D01*
X381639Y377328D01*
X381771Y377381D01*
X381902Y377439D01*
X382030Y377500D01*
X382157Y377565D01*
X382283Y377633D01*
X382406Y377705D01*
X372387Y384846D02*
X369142Y387442D01*
X369142Y375758D01*
X372387Y375758D02*
X365896Y375758D01*
D12*
X465725Y273132D02*
X479695Y273132D01*
X465725Y271580D02*
X465725Y274685D01*
X479695Y274685D02*
X479695Y271580D01*
X479695Y280659D02*
X465725Y280659D01*
X465725Y288420D02*
X479695Y280659D01*
X479695Y288420D02*
X465725Y288420D01*
X290394Y262431D02*
X284186Y262431D01*
X290394Y262430D02*
X290517Y262432D01*
X290640Y262438D01*
X290763Y262448D01*
X290885Y262461D01*
X291007Y262479D01*
X291128Y262500D01*
X291249Y262525D01*
X291369Y262554D01*
X291487Y262587D01*
X291605Y262624D01*
X291721Y262664D01*
X291836Y262708D01*
X291950Y262756D01*
X292062Y262807D01*
X292172Y262861D01*
X292281Y262920D01*
X292388Y262981D01*
X292492Y263046D01*
X292595Y263114D01*
X292695Y263186D01*
X292793Y263260D01*
X292889Y263338D01*
X292982Y263419D01*
X293072Y263502D01*
X293160Y263589D01*
X293245Y263678D01*
X293327Y263769D01*
X293406Y263864D01*
X293482Y263961D01*
X293555Y264060D01*
X293625Y264161D01*
X293692Y264265D01*
X293755Y264371D01*
X293815Y264478D01*
X293871Y264588D01*
X293924Y264699D01*
X293974Y264812D01*
X294019Y264926D01*
X294062Y265042D01*
X294100Y265159D01*
X294135Y265277D01*
X294166Y265396D01*
X294193Y265516D01*
X294216Y265637D01*
X294235Y265759D01*
X294251Y265881D01*
X294263Y266003D01*
X294271Y266126D01*
X294275Y266249D01*
X294275Y266373D01*
X294271Y266496D01*
X294263Y266619D01*
X294251Y266741D01*
X294235Y266863D01*
X294216Y266985D01*
X294193Y267106D01*
X294166Y267226D01*
X294135Y267345D01*
X294100Y267463D01*
X294062Y267580D01*
X294019Y267696D01*
X293974Y267810D01*
X293924Y267923D01*
X293871Y268034D01*
X293815Y268144D01*
X293755Y268252D01*
X293692Y268357D01*
X293625Y268461D01*
X293555Y268562D01*
X293482Y268661D01*
X293406Y268758D01*
X293327Y268853D01*
X293245Y268944D01*
X293160Y269033D01*
X293072Y269120D01*
X292982Y269203D01*
X292889Y269284D01*
X292793Y269362D01*
X292695Y269436D01*
X292595Y269508D01*
X292492Y269576D01*
X292388Y269641D01*
X292281Y269702D01*
X292172Y269761D01*
X292062Y269815D01*
X291950Y269866D01*
X291836Y269914D01*
X291721Y269958D01*
X291605Y269998D01*
X291487Y270035D01*
X291369Y270068D01*
X291249Y270097D01*
X291128Y270122D01*
X291007Y270143D01*
X290885Y270161D01*
X290763Y270174D01*
X290640Y270184D01*
X290517Y270190D01*
X290394Y270192D01*
X284186Y270192D01*
X284063Y270190D01*
X283940Y270184D01*
X283817Y270174D01*
X283695Y270161D01*
X283573Y270143D01*
X283452Y270122D01*
X283331Y270097D01*
X283211Y270068D01*
X283093Y270035D01*
X282975Y269998D01*
X282859Y269958D01*
X282744Y269914D01*
X282630Y269866D01*
X282518Y269815D01*
X282408Y269761D01*
X282299Y269702D01*
X282192Y269641D01*
X282088Y269576D01*
X281985Y269508D01*
X281885Y269436D01*
X281787Y269362D01*
X281691Y269284D01*
X281598Y269203D01*
X281508Y269120D01*
X281420Y269033D01*
X281335Y268944D01*
X281253Y268853D01*
X281174Y268758D01*
X281098Y268661D01*
X281025Y268562D01*
X280955Y268461D01*
X280888Y268357D01*
X280825Y268252D01*
X280765Y268144D01*
X280709Y268034D01*
X280656Y267923D01*
X280606Y267810D01*
X280561Y267696D01*
X280518Y267580D01*
X280480Y267463D01*
X280445Y267345D01*
X280414Y267226D01*
X280387Y267106D01*
X280364Y266985D01*
X280345Y266863D01*
X280329Y266741D01*
X280317Y266619D01*
X280309Y266496D01*
X280305Y266373D01*
X280305Y266249D01*
X280309Y266126D01*
X280317Y266003D01*
X280329Y265881D01*
X280345Y265759D01*
X280364Y265637D01*
X280387Y265516D01*
X280414Y265396D01*
X280445Y265277D01*
X280480Y265159D01*
X280518Y265042D01*
X280561Y264926D01*
X280606Y264812D01*
X280656Y264699D01*
X280709Y264588D01*
X280765Y264478D01*
X280825Y264371D01*
X280888Y264265D01*
X280955Y264161D01*
X281025Y264060D01*
X281098Y263961D01*
X281174Y263864D01*
X281253Y263769D01*
X281335Y263678D01*
X281420Y263589D01*
X281508Y263502D01*
X281598Y263419D01*
X281691Y263338D01*
X281787Y263260D01*
X281885Y263186D01*
X281985Y263114D01*
X282088Y263046D01*
X282192Y262981D01*
X282299Y262920D01*
X282408Y262861D01*
X282518Y262807D01*
X282630Y262756D01*
X282744Y262708D01*
X282859Y262664D01*
X282975Y262624D01*
X283093Y262587D01*
X283211Y262554D01*
X283331Y262525D01*
X283452Y262500D01*
X283573Y262479D01*
X283695Y262461D01*
X283817Y262448D01*
X283940Y262438D01*
X284063Y262432D01*
X284186Y262430D01*
X284186Y276576D02*
X294275Y276576D01*
X284186Y276575D02*
X284063Y276577D01*
X283940Y276583D01*
X283817Y276593D01*
X283695Y276606D01*
X283573Y276624D01*
X283452Y276645D01*
X283331Y276670D01*
X283211Y276699D01*
X283093Y276732D01*
X282975Y276769D01*
X282859Y276809D01*
X282744Y276853D01*
X282630Y276901D01*
X282518Y276952D01*
X282408Y277006D01*
X282299Y277065D01*
X282192Y277126D01*
X282088Y277191D01*
X281985Y277259D01*
X281885Y277331D01*
X281787Y277405D01*
X281691Y277483D01*
X281598Y277564D01*
X281508Y277647D01*
X281420Y277734D01*
X281335Y277823D01*
X281253Y277914D01*
X281174Y278009D01*
X281098Y278106D01*
X281025Y278205D01*
X280955Y278306D01*
X280888Y278410D01*
X280825Y278516D01*
X280765Y278623D01*
X280709Y278733D01*
X280656Y278844D01*
X280606Y278957D01*
X280561Y279071D01*
X280518Y279187D01*
X280480Y279304D01*
X280445Y279422D01*
X280414Y279541D01*
X280387Y279661D01*
X280364Y279782D01*
X280345Y279904D01*
X280329Y280026D01*
X280317Y280148D01*
X280309Y280271D01*
X280305Y280394D01*
X280305Y280518D01*
X280309Y280641D01*
X280317Y280764D01*
X280329Y280886D01*
X280345Y281008D01*
X280364Y281130D01*
X280387Y281251D01*
X280414Y281371D01*
X280445Y281490D01*
X280480Y281608D01*
X280518Y281725D01*
X280561Y281841D01*
X280606Y281955D01*
X280656Y282068D01*
X280709Y282179D01*
X280765Y282289D01*
X280825Y282397D01*
X280888Y282502D01*
X280955Y282606D01*
X281025Y282707D01*
X281098Y282806D01*
X281174Y282903D01*
X281253Y282998D01*
X281335Y283089D01*
X281420Y283178D01*
X281508Y283265D01*
X281598Y283348D01*
X281691Y283429D01*
X281787Y283507D01*
X281885Y283581D01*
X281985Y283653D01*
X282088Y283721D01*
X282192Y283786D01*
X282299Y283847D01*
X282408Y283906D01*
X282518Y283960D01*
X282630Y284011D01*
X282744Y284059D01*
X282859Y284103D01*
X282975Y284143D01*
X283093Y284180D01*
X283211Y284213D01*
X283331Y284242D01*
X283452Y284267D01*
X283573Y284288D01*
X283695Y284306D01*
X283817Y284319D01*
X283940Y284329D01*
X284063Y284335D01*
X284186Y284337D01*
X294275Y284337D01*
X294275Y293689D02*
X280305Y293689D01*
X294275Y297569D02*
X294275Y289808D01*
D13*
X449850Y233010D02*
X449850Y220310D01*
X443500Y333340D02*
X456200Y333340D01*
X456200Y226660D02*
X443500Y226660D01*
X310150Y220310D02*
X310150Y233010D01*
X303800Y333340D02*
X316500Y333340D01*
X316500Y226660D02*
X303800Y226660D01*
M02*
