G04 EAGLE Gerber RS-274X export*
G75*
%MOMM*%
%FSLAX34Y34*%
%LPD*%
%AMOC8*
5,1,8,0,0,1.08239X$1,22.5*%
G01*
%ADD10C,3.203200*%
%ADD11C,2.387600*%
%ADD12C,2.082800*%
%ADD13C,2.203200*%
%ADD14R,2.203200X2.203200*%
%ADD15C,0.959600*%
%ADD16R,3.203200X3.203200*%


D10*
X165118Y529043D03*
X165324Y38941D03*
X745151Y38970D03*
X745140Y528900D03*
D11*
X22121Y102196D02*
X22121Y80352D01*
X59199Y61274D02*
X81043Y61274D01*
X81043Y121274D02*
X59199Y121274D01*
D12*
X213940Y516369D03*
X239340Y516369D03*
X264740Y516369D03*
X290140Y516369D03*
X315540Y516369D03*
X340940Y516369D03*
X366340Y516369D03*
X391740Y516369D03*
X417140Y516369D03*
X442540Y516369D03*
X467940Y516369D03*
X493340Y516369D03*
X518740Y516369D03*
X518740Y541769D03*
X493340Y541769D03*
X467940Y541769D03*
X442540Y541769D03*
X417140Y541769D03*
X391740Y541769D03*
X366340Y541769D03*
X340940Y541769D03*
X315540Y541769D03*
X290140Y541769D03*
X264740Y541769D03*
X239340Y541769D03*
X213940Y541769D03*
X544140Y516369D03*
X544140Y541769D03*
X569540Y516369D03*
X569540Y541769D03*
X594940Y516369D03*
X594940Y541769D03*
X620340Y516369D03*
X620340Y541769D03*
X645740Y516369D03*
X645740Y541769D03*
X671140Y516369D03*
X671140Y541769D03*
X696540Y516369D03*
X696540Y541769D03*
D13*
X472710Y346040D03*
D14*
X472710Y213960D03*
D13*
X287290Y346040D03*
X472710Y320640D03*
X287290Y320640D03*
D14*
X472710Y239360D03*
X287290Y213960D03*
X287290Y239360D03*
D15*
X3518Y605239D03*
X776655Y3843D03*
X776651Y605452D03*
X3729Y3769D03*
D16*
X110000Y420000D03*
X110000Y370000D03*
M02*
